<svg aria-hidden="true" style="position: absolute; width: 0; height: 0; overflow: hidden;" version="1.1" xmlns="http://www.w3.org/2000/svg" xmlns:xlink="http://www.w3.org/1999/xlink">
<defs>
<symbol id="icon-menu-hamburger" viewBox="0 0 47 32">
<path stroke-linejoin="round" stroke-linecap="round" stroke-miterlimit="4" stroke-width="4.3636" d="M2.747 28.668h41.378M2.747 15.629h41.378M2.747 2.591h41.378"></path>
</symbol>
<symbol id="icon-Checkbox" viewBox="0 0 32 32">
<path d="M26.796 4.266c0.541-0.518 1.262-0.805 2.009-0.799s1.464 0.303 1.997 0.829c0.534 0.526 0.843 1.24 0.863 1.992s-0.252 1.481-0.757 2.035l-15.337 19.284c-0.264 0.285-0.582 0.514-0.936 0.673s-0.735 0.244-1.123 0.252c-0.388 0.007-0.773-0.064-1.132-0.209s-0.685-0.362-0.96-0.638l-10.17-10.225c-0.283-0.265-0.511-0.585-0.668-0.941s-0.242-0.74-0.249-1.128c-0.007-0.389 0.064-0.776 0.209-1.137s0.361-0.688 0.635-0.964c0.274-0.275 0.6-0.493 0.958-0.638s0.743-0.217 1.131-0.211c0.387 0.007 0.769 0.092 1.122 0.25s0.672 0.387 0.936 0.672l8.049 8.088 13.349-17.1c0.024-0.030 0.050-0.058 0.077-0.085h-0.003z"></path>
<symbol id="icon-paper-plane" viewBox="0 0 32 32">
<path d="M29 5.167l-26 12.188 8.309 2.564 12.816-10.012-9.748 10.959 0.008 0.002-0.010-0.002v5.968l4.66-4.53 5.903 1.822 4.062-18.958z"></path>
</symbol>
<symbol id="icon-email" viewBox="0 0 24 32">
<path d="M19.1 8.9h-14.2c-0.976 0-1.766 0.799-1.766 1.775l-0.009 10.65c0 0.976 0.799 1.775 1.775 1.775h14.2c0.976 0 1.775-0.799 1.775-1.775v-10.65c0-0.976-0.799-1.775-1.775-1.775zM18.745 12.672l-6.275 3.923c-0.284 0.177-0.657 0.177-0.941 0l-6.275-3.923c-0.222-0.142-0.355-0.382-0.355-0.639 0-0.595 0.648-0.95 1.154-0.639l5.946 3.719 5.946-3.719c0.506-0.311 1.154 0.044 1.154 0.639 0 0.257-0.133 0.497-0.355 0.639z"></path>
</symbol>
<symbol id="icon-phone" viewBox="0 0 24 32">
<path d="M19.268 18.367l-2.333-0.267c-0.56-0.064-1.111 0.129-1.506 0.523l-1.69 1.69c-2.599-1.323-4.73-3.445-6.053-6.053l1.699-1.699c0.395-0.395 0.588-0.946 0.523-1.506l-0.267-2.315c-0.11-0.928-0.891-1.626-1.828-1.626h-1.589c-1.038 0-1.901 0.864-1.837 1.901 0.487 7.844 6.76 14.108 14.595 14.595 1.038 0.064 1.901-0.799 1.901-1.837v-1.589c0.009-0.928-0.689-1.708-1.616-1.819z"></path>
</symbol>
<symbol id="icon-person" viewBox="0 0 32 32">
<path d="M16 16c3.729 0 6.75-3.021 6.75-6.75s-3.021-6.75-6.75-6.75c-3.729 0-6.75 3.021-6.75 6.75s3.021 6.75 6.75 6.75zM16 19.375c-4.506 0-13.5 2.261-13.5 6.75v1.688c0 0.928 0.759 1.688 1.688 1.688h23.625c0.928 0 1.688-0.759 1.688-1.688v-1.688c0-4.489-8.994-6.75-13.5-6.75z"></path>
</symbol>
<symbol id="icon-icon-close" viewBox="0 0 32 32">
<path d="M32 3.223l-3.223-3.223-12.777 12.777-12.777-12.777-3.223 3.223 12.777 12.777-12.777 12.777 3.223 3.223 12.777-12.777 12.777 12.777 3.223-3.223-12.777-12.777 12.777-12.777z"></path>
</symbol>
<symbol id="icon-client-6" viewBox="0 0 61 32">
<path d="M31.399 15.689c-0.248-0.33-0.367-0.72-0.339-1.114v-1.615c0-0.495 0.112-0.871 0.337-1.128s0.61-0.385 1.157-0.384c0.514 0 0.879 0.11 1.094 0.328 0.235 0.279 0.35 0.621 0.324 0.966v0.379h-0.919v-0.384c0.003-0.126-0.006-0.252-0.027-0.376-0.013-0.085-0.059-0.164-0.131-0.224-0.095-0.064-0.213-0.095-0.333-0.087-0.126-0.008-0.251 0.025-0.35 0.092-0.080 0.066-0.133 0.152-0.152 0.246-0.026 0.132-0.038 0.265-0.036 0.399v1.959c-0.015 0.189 0.026 0.378 0.118 0.55 0.046 0.058 0.109 0.104 0.184 0.133s0.156 0.040 0.237 0.031c0.118 0.008 0.234-0.024 0.325-0.089 0.075-0.064 0.123-0.148 0.137-0.238 0.021-0.13 0.031-0.261 0.028-0.393v-0.397h0.919v0.363c0.026 0.359-0.086 0.716-0.318 1.015-0.211 0.24-0.571 0.36-1.1 0.36s-0.929-0.128-1.155-0.394z"></path>
<path d="M35.227 15.705c-0.232-0.251-0.348-0.617-0.348-1.102v-1.698c0-0.48 0.116-0.843 0.348-1.089s0.62-0.369 1.165-0.368c0.54 0 0.927 0.123 1.159 0.368s0.35 0.61 0.35 1.089v1.698c0 0.48-0.118 0.848-0.354 1.1s-0.62 0.379-1.155 0.379-0.931-0.128-1.165-0.378zM36.82 15.298c0.083-0.158 0.121-0.33 0.11-0.503v-2.079c0.011-0.17-0.027-0.339-0.108-0.493-0.047-0.059-0.112-0.106-0.188-0.135s-0.16-0.039-0.242-0.029c-0.082-0.010-0.167 0-0.243 0.029s-0.142 0.076-0.189 0.135c-0.084 0.154-0.122 0.323-0.11 0.493v2.089c-0.012 0.173 0.026 0.345 0.11 0.503 0.054 0.053 0.12 0.095 0.194 0.125s0.155 0.044 0.236 0.044 0.162-0.015 0.236-0.044c0.074-0.029 0.14-0.072 0.194-0.125v-0.010z"></path>
<path d="M39.007 11.498h0.989l0.744 3.134 0.762-3.134h0.963l0.097 4.523h-0.712l-0.076-3.143-0.734 3.143h-0.571l-0.762-3.155-0.070 3.155h-0.72l0.090-4.523z"></path>
<path d="M43.673 11.498h1.542c0.888 0 1.332 0.428 1.332 1.284 0 0.82-0.468 1.229-1.403 1.228h-0.525v2.010h-0.951l0.005-4.523zM44.99 13.43c0.094 0.010 0.19 0.003 0.28-0.022s0.173-0.066 0.243-0.121c0.109-0.153 0.157-0.332 0.137-0.511 0.005-0.138-0.010-0.276-0.045-0.411-0.014-0.045-0.038-0.087-0.070-0.124s-0.073-0.068-0.12-0.091c-0.132-0.055-0.278-0.079-0.424-0.072h-0.37v1.352h0.37z"></path>
<path d="M47.919 11.498h1.022l1.049 4.523h-0.887l-0.207-1.043h-0.912l-0.213 1.043h-0.9l1.049-4.523zM48.792 14.454l-0.356-1.898-0.356 1.898h0.712z"></path>
<path d="M50.837 11.498h0.666l1.275 2.58v-2.58h0.79v4.523h-0.634l-1.283-2.693v2.693h-0.816l0.002-4.523z"></path>
<path d="M55.418 14.296l-1.060-2.792h0.893l0.647 1.793 0.607-1.793h0.874l-1.047 2.792v1.724h-0.914v-1.724z"></path>
<path d="M32.869 17.998v0.236h-0.777v1.838h-0.325v-1.838h-0.78v-0.236h1.883z"></path>
<path d="M35.303 20.072h-0.251c-0.025 0.001-0.051-0.006-0.070-0.020-0.019-0.012-0.033-0.028-0.042-0.048l-0.225-0.493h-1.077l-0.225 0.493c-0.006 0.021-0.018 0.040-0.034 0.056-0.020 0.014-0.045 0.021-0.070 0.020h-0.251l0.952-2.074h0.331l0.963 2.066zM33.727 19.302h0.899l-0.381-0.844c-0.028-0.064-0.051-0.129-0.070-0.195-0.013 0.039-0.025 0.077-0.036 0.11l-0.034 0.087-0.377 0.842z"></path>
<path d="M36.944 19.869c0.059 0.003 0.119 0.003 0.179 0 0.051-0.005 0.102-0.013 0.152-0.025 0.047-0.010 0.092-0.022 0.137-0.038 0.042-0.015 0.084-0.033 0.127-0.051v-0.467h-0.381c-0.009 0.001-0.019-0.001-0.028-0.004s-0.017-0.007-0.024-0.013c-0.006-0.005-0.011-0.010-0.015-0.017s-0.005-0.014-0.005-0.021v-0.159h0.739v0.795c-0.060 0.037-0.124 0.070-0.19 0.099-0.068 0.029-0.139 0.053-0.211 0.071-0.078 0.020-0.158 0.034-0.238 0.043-0.092 0.009-0.185 0.013-0.278 0.013-0.164 0.001-0.327-0.025-0.48-0.077-0.142-0.049-0.272-0.123-0.38-0.217-0.106-0.095-0.189-0.206-0.245-0.328-0.060-0.138-0.090-0.284-0.088-0.43-0.002-0.148 0.027-0.295 0.086-0.434 0.055-0.123 0.138-0.235 0.245-0.328 0.108-0.093 0.238-0.167 0.38-0.215 0.163-0.053 0.336-0.079 0.51-0.077 0.088-0 0.177 0.006 0.265 0.018 0.078 0.011 0.153 0.028 0.227 0.053 0.067 0.022 0.13 0.049 0.19 0.082 0.058 0.032 0.114 0.069 0.165 0.108l-0.091 0.128c-0.007 0.012-0.018 0.022-0.031 0.028s-0.028 0.011-0.043 0.011c-0.021-0.001-0.042-0.006-0.059-0.016-0.028-0.013-0.059-0.030-0.093-0.049-0.041-0.022-0.083-0.041-0.127-0.056-0.057-0.019-0.115-0.035-0.175-0.046-0.080-0.013-0.161-0.019-0.242-0.018-0.125-0.001-0.25 0.018-0.367 0.058-0.106 0.037-0.201 0.093-0.28 0.164-0.079 0.075-0.139 0.162-0.177 0.258-0.085 0.225-0.085 0.467 0 0.691 0.042 0.098 0.107 0.187 0.19 0.261 0.078 0.071 0.173 0.127 0.278 0.164 0.121 0.036 0.249 0.050 0.377 0.041z"></path>
<path d="M39.978 19.836h1.039v0.236h-1.357v-2.075h0.325l-0.008 1.838z"></path>
<path d="M42.098 20.072h-0.325v-2.075h0.325v2.075z"></path>
<path d="M43.309 18.008c0.019 0.010 0.036 0.022 0.049 0.038l1.391 1.564c-0.002-0.025-0.002-0.049 0-0.074 0-0.023 0-0.046 0-0.067v-1.478h0.284v2.083h-0.164c-0.024 0.002-0.048-0.002-0.070-0.012-0.019-0.010-0.037-0.024-0.051-0.039l-1.389-1.562c0 0.025 0 0.048 0 0.071s0 0.044 0 0.064v1.478h-0.272v-2.075h0.169c0.018 0 0.037 0.003 0.054 0.010z"></path>
<path d="M47.43 17.998v0.228h-1.154v0.685h0.935v0.22h-0.935v0.708h1.154v0.228h-1.489v-2.069h1.489z"></path>
<path d="M13.323 5.187l14.452 3.541v12.408l-14.452-3.539v-12.41zM12.396 4.13v14.070l16.304 3.996v-14.069l-16.304-3.998z"></path>
<path d="M21.135 28.727l-16.306-3.999v-14.069l16.306 3.998v14.071z"></path>
<path d="M12.667 5.028l14.264 3.497-6.066 5.236-14.266-3.498 6.068-5.234zM12.396 4.13l-7.568 6.53 16.306 3.998 7.566-6.53-16.304-3.998z"></path>
<path d="M22.052 27.936l6.648-5.738-6.648-1.631v7.369z"></path>
</symbol>
<symbol id="icon-client-5" viewBox="0 0 61 32">
<path d="M16.337 25.228c0.138 0.154 0.212 0.347 0.208 0.545 0.007 0.13-0.019 0.258-0.074 0.377s-0.141 0.225-0.249 0.311c-0.269 0.183-0.602 0.272-0.938 0.252h-1.649v-3.456h1.615c0.319-0.019 0.635 0.062 0.894 0.23 0.104 0.079 0.187 0.178 0.241 0.29s0.079 0.234 0.072 0.357c0.009 0.191-0.057 0.378-0.187 0.528-0.125 0.138-0.298 0.233-0.491 0.27 0.219 0.036 0.416 0.141 0.557 0.295zM14.403 24.706h0.69c0.157 0.011 0.313-0.030 0.439-0.115 0.052-0.042 0.092-0.095 0.118-0.153s0.036-0.122 0.030-0.184c0.005-0.062-0.006-0.125-0.031-0.184s-0.065-0.111-0.115-0.154c-0.13-0.087-0.29-0.128-0.452-0.116h-0.679v0.907zM15.6 26.032c0.055-0.043 0.099-0.097 0.127-0.158s0.041-0.127 0.036-0.193c0.004-0.067-0.008-0.133-0.038-0.195s-0.073-0.116-0.13-0.16c-0.135-0.090-0.301-0.134-0.469-0.125h-0.724v0.951h0.734c0.165 0.008 0.328-0.034 0.463-0.12z"></path>
<path d="M19.637 26.714l-0.899-1.351h-0.338v1.351h-0.772v-3.456h1.463c0.369-0.023 0.734 0.082 1.018 0.294 0.204 0.187 0.328 0.435 0.348 0.697s-0.065 0.522-0.239 0.733c-0.181 0.186-0.427 0.31-0.698 0.351l0.956 1.381h-0.84zM18.401 24.893h0.632c0.439 0 0.658-0.174 0.658-0.523 0.005-0.071-0.008-0.143-0.035-0.209s-0.071-0.128-0.126-0.179c-0.139-0.104-0.317-0.154-0.497-0.14h-0.639l0.008 1.052z"></path>
<path d="M23.862 26.019h-1.54l-0.272 0.696h-0.81l1.414-3.418h0.876l1.409 3.418h-0.81l-0.266-0.696zM23.655 25.495l-0.563-1.459-0.563 1.459h1.125z"></path>
<path d="M29.149 26.714h-0.767l-1.72-2.351v2.351h-0.765v-3.456h0.765l1.72 2.364v-2.364h0.767v3.456z"></path>
<path d="M33.527 25.887c-0.159 0.261-0.401 0.474-0.694 0.61-0.334 0.152-0.704 0.227-1.078 0.218h-1.365v-3.456h1.365c0.373-0.009 0.743 0.065 1.078 0.213 0.294 0.133 0.536 0.344 0.694 0.603 0.158 0.281 0.24 0.592 0.24 0.907s-0.082 0.626-0.24 0.907zM32.649 25.804c0.219-0.23 0.339-0.522 0.339-0.825s-0.12-0.595-0.339-0.825c-0.265-0.208-0.61-0.314-0.96-0.294h-0.533v2.237h0.533c0.351 0.020 0.696-0.086 0.96-0.294z"></path>
<path d="M24.342 4.032c0 0 9.901 3.365 9.691 8.235v8.237c0 0-9.894-3.367-9.687-8.237l-0.004-8.235z"></path>
<path d="M42.854 18.576c1.87-1.159 4.033-1.876 6.291-2.087v-2.579c-2.602 0.902-4.808 2.54-6.291 4.665z"></path>
<path d="M41.731 19.353c1.53-2.774 4.184-4.916 7.414-5.983v-7.43c0 0-14.101 4.794-13.803 11.729v11.727c0 0 0.628-0.214 1.617-0.616 0-0.375 0-0.753 0.045-1.133 0.292-3.22 1.992-6.203 4.727-8.294z"></path>
<path d="M40.389 23.709c0.074-0.813 0.239-1.618 0.493-2.401-1.703 1.806-2.734 4.047-2.949 6.408-0.021 0.223-0.032 0.446-0.038 0.675 0.801-0.346 1.733-0.778 2.712-1.287-0.25-1.117-0.324-2.26-0.22-3.396z"></path>
<path d="M40.95 23.751c-0.094 1.027-0.035 2.061 0.175 3.075 3.852-2.075 8.181-5.282 8.015-9.157v-0.338c-2.752 0.277-5.328 1.36-7.33 3.083-0.468 1.068-0.758 2.192-0.859 3.337z"></path>
</symbol>
<symbol id="icon-client-4" viewBox="0 0 61 32">
<path d="M11.475 11.573h-0.002c-1.629 0-2.95 1.191-2.95 2.66v0.002c0 1.469 1.321 2.66 2.95 2.66h0.002c1.629 0 2.95-1.191 2.95-2.66v-0.002c0-1.469-1.321-2.66-2.95-2.66z"></path>
<path d="M33.249 10.723c-0.005-2.040-0.905-3.996-2.506-5.439s-3.768-2.256-6.032-2.26v0c-2.264 0.004-4.433 0.816-6.034 2.259s-2.502 3.399-2.507 5.44v11.251c0 0 17.076-1.715 17.078-11.249v-0.002z"></path>
<path d="M2.543 25.667c0.004 1.42 0.631 2.78 1.744 3.784s2.622 1.57 4.197 1.574c1.574-0.004 3.082-0.57 4.196-1.573s1.741-2.364 1.745-3.783v-7.829c0 0-11.882 1.194-11.882 7.827zM8.484 27.069c-0.308 0-0.609-0.082-0.864-0.236s-0.455-0.373-0.573-0.63-0.149-0.538-0.089-0.81c0.060-0.272 0.208-0.522 0.426-0.718s0.495-0.33 0.797-0.384 0.615-0.026 0.899 0.080c0.284 0.106 0.527 0.286 0.698 0.517s0.262 0.502 0.262 0.779c0.001 0.185-0.039 0.368-0.117 0.538s-0.192 0.326-0.337 0.457c-0.145 0.131-0.316 0.235-0.505 0.306s-0.392 0.107-0.597 0.107v-0.005z"></path>
<path d="M19.35 24.547v2.913h-0.6v-2.913h0.6zM20.51 25.792v0.468h-1.325v-0.468h1.325zM20.651 24.547v0.47h-1.465v-0.47h1.465zM23.392 25.935v0.138c0 0.222-0.030 0.42-0.090 0.596s-0.145 0.326-0.254 0.45c-0.109 0.123-0.24 0.217-0.392 0.282-0.151 0.065-0.318 0.098-0.502 0.098-0.183 0-0.35-0.033-0.502-0.098-0.151-0.065-0.281-0.159-0.392-0.282-0.111-0.124-0.197-0.274-0.258-0.45-0.060-0.176-0.090-0.375-0.090-0.596v-0.138c0-0.223 0.030-0.422 0.090-0.596 0.060-0.176 0.145-0.326 0.254-0.45 0.111-0.124 0.241-0.219 0.392-0.284 0.152-0.065 0.32-0.098 0.502-0.098 0.184 0 0.352 0.033 0.502 0.098 0.152 0.065 0.283 0.16 0.392 0.284 0.111 0.124 0.196 0.274 0.256 0.45 0.061 0.175 0.092 0.373 0.092 0.596zM22.785 26.074v-0.142c0-0.155-0.014-0.291-0.042-0.408s-0.069-0.216-0.124-0.296-0.121-0.14-0.2-0.18c-0.079-0.041-0.169-0.062-0.27-0.062s-0.191 0.021-0.27 0.062c-0.077 0.040-0.143 0.1-0.198 0.18-0.054 0.080-0.094 0.179-0.122 0.296s-0.042 0.253-0.042 0.408v0.142c0 0.154 0.014 0.289 0.042 0.408 0.028 0.117 0.069 0.217 0.124 0.298 0.055 0.080 0.121 0.141 0.2 0.182s0.169 0.062 0.27 0.062 0.191-0.021 0.27-0.062c0.079-0.041 0.145-0.102 0.198-0.182 0.054-0.081 0.094-0.181 0.122-0.298 0.028-0.119 0.042-0.255 0.042-0.408zM25.34 26.698c0-0.052-0.008-0.099-0.024-0.14-0.015-0.043-0.043-0.082-0.084-0.116-0.041-0.036-0.099-0.071-0.174-0.106s-0.171-0.071-0.29-0.108c-0.132-0.043-0.257-0.091-0.376-0.144-0.117-0.053-0.222-0.115-0.312-0.186-0.089-0.072-0.16-0.155-0.212-0.25-0.051-0.095-0.076-0.205-0.076-0.33 0-0.121 0.027-0.231 0.080-0.33 0.053-0.1 0.128-0.185 0.224-0.256 0.096-0.072 0.21-0.127 0.34-0.166 0.132-0.039 0.277-0.058 0.434-0.058 0.215 0 0.402 0.039 0.562 0.116s0.284 0.183 0.372 0.318c0.089 0.135 0.134 0.289 0.134 0.462h-0.596c0-0.085-0.018-0.16-0.054-0.224-0.035-0.065-0.088-0.117-0.16-0.154-0.071-0.037-0.16-0.056-0.268-0.056-0.104 0-0.191 0.016-0.26 0.048-0.069 0.031-0.121 0.073-0.156 0.126-0.035 0.052-0.052 0.111-0.052 0.176 0 0.049 0.012 0.094 0.036 0.134 0.025 0.040 0.063 0.077 0.112 0.112s0.11 0.068 0.182 0.098c0.072 0.031 0.155 0.061 0.25 0.090 0.159 0.048 0.298 0.102 0.418 0.162 0.121 0.060 0.223 0.127 0.304 0.202s0.143 0.159 0.184 0.254 0.062 0.202 0.062 0.322c0 0.127-0.025 0.24-0.074 0.34s-0.121 0.185-0.214 0.254-0.205 0.122-0.334 0.158c-0.129 0.036-0.274 0.054-0.434 0.054-0.144 0-0.286-0.019-0.426-0.056-0.14-0.039-0.267-0.097-0.382-0.174-0.113-0.077-0.204-0.176-0.272-0.296s-0.102-0.262-0.102-0.426h0.602c0 0.091 0.014 0.167 0.042 0.23s0.067 0.113 0.118 0.152c0.052 0.039 0.113 0.067 0.184 0.084 0.072 0.017 0.151 0.026 0.236 0.026 0.104 0 0.189-0.015 0.256-0.044 0.068-0.029 0.118-0.070 0.15-0.122 0.033-0.052 0.050-0.111 0.050-0.176zM27.651 24.547v2.913h-0.598v-2.913h0.598zM28.548 24.547v0.47h-2.377v-0.47h2.377zM30.845 26.992v0.468h-1.551v-0.468h1.551zM29.49 24.547v2.913h-0.6v-2.913h0.6zM30.643 25.734v0.456h-1.349v-0.456h1.349zM30.843 24.547v0.47h-1.549v-0.47h1.549zM31.195 24.547h1.087c0.223 0 0.414 0.033 0.574 0.1 0.161 0.067 0.285 0.166 0.372 0.296s0.13 0.292 0.13 0.482c0 0.156-0.027 0.29-0.080 0.402-0.052 0.111-0.126 0.203-0.222 0.278-0.095 0.073-0.206 0.132-0.334 0.176l-0.19 0.1h-0.945l-0.004-0.468h0.702c0.105 0 0.193-0.019 0.262-0.056s0.121-0.089 0.156-0.156c0.036-0.067 0.054-0.144 0.054-0.232 0-0.093-0.017-0.174-0.052-0.242s-0.087-0.12-0.158-0.156-0.159-0.054-0.266-0.054h-0.486v2.443h-0.6v-2.913zM32.824 27.46l-0.664-1.299 0.634-0.004 0.672 1.274v0.028h-0.642zM35.975 26.422h-0.742v-0.468h0.742c0.115 0 0.208-0.019 0.28-0.056 0.072-0.039 0.125-0.092 0.158-0.16s0.050-0.145 0.050-0.23c0-0.087-0.017-0.168-0.050-0.242s-0.086-0.135-0.158-0.18-0.166-0.068-0.28-0.068h-0.534v2.443h-0.6v-2.913h1.134c0.228 0 0.423 0.041 0.586 0.124 0.164 0.081 0.289 0.194 0.376 0.338s0.13 0.309 0.13 0.494c0 0.188-0.043 0.351-0.13 0.488s-0.212 0.243-0.376 0.318c-0.163 0.075-0.358 0.112-0.586 0.112zM39.436 26.992v0.468h-1.551v-0.468h1.551zM38.081 24.547v2.913h-0.6v-2.913h0.6zM39.234 25.734v0.456h-1.349v-0.456h1.349zM39.434 24.547v0.47h-1.549v-0.47h1.549zM41.129 24.547v2.913h-0.598v-2.913h0.598zM42.025 24.547v0.47h-2.377v-0.47h2.377zM44.322 26.992v0.468h-1.55v-0.468h1.55zM42.968 24.547v2.913h-0.6v-2.913h0.6zM44.12 25.734v0.456h-1.348v-0.456h1.348zM44.32 24.547v0.47h-1.548v-0.47h1.548zM44.672 24.547h1.087c0.223 0 0.414 0.033 0.574 0.1s0.285 0.166 0.372 0.296 0.13 0.292 0.13 0.482c0 0.156-0.027 0.29-0.080 0.402-0.052 0.111-0.126 0.203-0.222 0.278-0.095 0.073-0.206 0.132-0.335 0.176l-0.19 0.1h-0.945l-0.004-0.468h0.703c0.105 0 0.193-0.019 0.261-0.056s0.121-0.089 0.156-0.156c0.036-0.067 0.054-0.144 0.054-0.232 0-0.093-0.017-0.174-0.052-0.242s-0.087-0.12-0.159-0.156c-0.070-0.036-0.159-0.054-0.266-0.054h-0.486v2.443h-0.6v-2.913zM46.301 27.46l-0.665-1.299 0.635-0.004 0.672 1.274v0.028h-0.642zM48.814 26.698c0-0.052-0.007-0.099-0.024-0.14-0.014-0.043-0.042-0.082-0.084-0.116-0.041-0.036-0.099-0.071-0.174-0.106s-0.171-0.071-0.289-0.108c-0.133-0.043-0.257-0.091-0.376-0.144-0.117-0.053-0.221-0.115-0.312-0.186-0.089-0.072-0.161-0.155-0.212-0.25-0.051-0.095-0.076-0.205-0.076-0.33 0-0.121 0.027-0.231 0.080-0.33 0.053-0.1 0.128-0.185 0.224-0.256 0.096-0.072 0.21-0.127 0.34-0.166 0.133-0.039 0.277-0.058 0.434-0.058 0.215 0 0.402 0.039 0.562 0.116s0.284 0.183 0.372 0.318c0.089 0.135 0.134 0.289 0.134 0.462h-0.596c0-0.085-0.018-0.16-0.054-0.224-0.034-0.065-0.088-0.117-0.16-0.154s-0.16-0.056-0.268-0.056c-0.104 0-0.191 0.016-0.26 0.048-0.069 0.031-0.121 0.073-0.156 0.126-0.035 0.052-0.052 0.111-0.052 0.176 0 0.049 0.012 0.094 0.036 0.134s0.062 0.077 0.112 0.112c0.049 0.035 0.11 0.068 0.182 0.098s0.156 0.061 0.25 0.090c0.159 0.048 0.299 0.102 0.419 0.162s0.223 0.127 0.304 0.202 0.143 0.159 0.184 0.254c0.041 0.095 0.061 0.202 0.061 0.322 0 0.127-0.025 0.24-0.074 0.34s-0.121 0.185-0.215 0.254c-0.093 0.069-0.204 0.122-0.334 0.158s-0.274 0.054-0.434 0.054c-0.143 0-0.285-0.019-0.426-0.056-0.14-0.039-0.267-0.097-0.382-0.174-0.113-0.077-0.204-0.176-0.273-0.296s-0.102-0.262-0.102-0.426h0.602c0 0.091 0.014 0.167 0.042 0.23s0.068 0.113 0.118 0.152c0.052 0.039 0.113 0.067 0.184 0.084s0.15 0.026 0.236 0.026c0.105 0 0.19-0.015 0.256-0.044 0.068-0.029 0.118-0.070 0.15-0.122 0.033-0.052 0.050-0.111 0.050-0.176z"></path>
</symbol>
<symbol id="icon-client-3" viewBox="0 0 61 32">
<path d="M20.171 30.494c0.011 0 0.022 0.002 0.032 0.006s0.019 0.009 0.026 0.016l0.151 0.142c-0.117 0.115-0.262 0.206-0.424 0.269-0.19 0.068-0.395 0.101-0.602 0.097-0.194 0.003-0.386-0.028-0.565-0.090-0.161-0.058-0.307-0.145-0.426-0.254-0.121-0.114-0.215-0.247-0.275-0.393-0.066-0.162-0.098-0.333-0.096-0.504-0.003-0.173 0.033-0.344 0.104-0.506 0.066-0.147 0.165-0.28 0.292-0.393 0.129-0.111 0.283-0.198 0.453-0.256 0.186-0.061 0.383-0.092 0.583-0.090 0.185-0.004 0.369 0.024 0.541 0.082 0.149 0.056 0.287 0.132 0.406 0.227l-0.126 0.152c-0.009 0.011-0.019 0.020-0.032 0.028-0.015 0.009-0.033 0.013-0.051 0.011-0.020-0.001-0.038-0.007-0.055-0.016l-0.068-0.040-0.094-0.051c-0.041-0.019-0.083-0.036-0.126-0.050-0.056-0.017-0.113-0.030-0.172-0.040-0.074-0.012-0.149-0.017-0.224-0.016-0.143-0.002-0.286 0.021-0.418 0.068-0.124 0.043-0.236 0.107-0.328 0.19-0.094 0.088-0.166 0.191-0.213 0.303-0.053 0.128-0.079 0.264-0.077 0.399-0.002 0.138 0.024 0.275 0.077 0.406 0.046 0.111 0.117 0.213 0.209 0.301 0.086 0.082 0.193 0.146 0.313 0.187 0.123 0.044 0.255 0.065 0.388 0.065 0.077 0.001 0.154-0.003 0.23-0.013 0.124-0.013 0.243-0.050 0.349-0.108 0.053-0.030 0.103-0.063 0.149-0.1 0.019-0.016 0.045-0.025 0.072-0.026z"></path>
<path d="M24.525 29.781c0.002 0.171-0.032 0.341-0.102 0.501-0.061 0.145-0.158 0.278-0.284 0.389s-0.278 0.198-0.446 0.255c-0.369 0.12-0.777 0.12-1.146 0-0.167-0.058-0.318-0.145-0.443-0.256-0.126-0.113-0.223-0.247-0.287-0.393-0.136-0.324-0.136-0.679 0-1.003 0.064-0.147 0.161-0.28 0.287-0.394 0.126-0.107 0.277-0.191 0.443-0.247 0.369-0.122 0.777-0.122 1.146 0 0.168 0.058 0.319 0.145 0.445 0.256 0.124 0.112 0.221 0.244 0.285 0.388 0.070 0.161 0.105 0.332 0.102 0.504zM24.129 29.781c0.003-0.137-0.021-0.273-0.072-0.403-0.042-0.111-0.111-0.214-0.202-0.301-0.089-0.083-0.197-0.148-0.319-0.19-0.268-0.088-0.565-0.088-0.833 0-0.121 0.042-0.23 0.107-0.319 0.19-0.092 0.087-0.161 0.189-0.203 0.301-0.096 0.262-0.096 0.543 0 0.805 0.042 0.112 0.112 0.214 0.203 0.301 0.089 0.082 0.197 0.147 0.319 0.189 0.268 0.086 0.565 0.086 0.833 0 0.121-0.042 0.23-0.106 0.319-0.189 0.091-0.088 0.159-0.19 0.202-0.301 0.051-0.13 0.075-0.266 0.072-0.403z"></path>
<path d="M27.496 30.204l0.040 0.090c0.015-0.032 0.028-0.061 0.043-0.090s0.031-0.060 0.049-0.089l0.963-1.496c0.019-0.026 0.036-0.042 0.055-0.047 0.026-0.007 0.052-0.009 0.079-0.008h0.285v2.434h-0.338v-1.789c0-0.023 0-0.049 0-0.076-0.002-0.028-0.002-0.056 0-0.084l-0.969 1.517c-0.012 0.023-0.032 0.042-0.057 0.056s-0.054 0.021-0.083 0.021h-0.055c-0.029 0-0.058-0.007-0.083-0.020s-0.044-0.033-0.056-0.056l-0.997-1.527c0 0.029 0 0.058 0 0.087s0 0.055 0 0.077v1.789h-0.326v-2.429h0.285c0.027-0.001 0.054 0.002 0.079 0.008 0.023 0.010 0.042 0.026 0.053 0.047l0.984 1.498c0.019 0.028 0.036 0.057 0.049 0.087z"></path>
<path d="M31.121 30.083v0.912h-0.377v-2.43h0.841c0.159-0.002 0.317 0.015 0.469 0.053 0.122 0.030 0.235 0.081 0.332 0.152 0.084 0.066 0.148 0.147 0.189 0.238 0.044 0.099 0.066 0.205 0.064 0.311 0.002 0.107-0.022 0.212-0.070 0.311-0.045 0.093-0.115 0.177-0.203 0.243-0.097 0.073-0.21 0.128-0.334 0.161-0.147 0.040-0.301 0.059-0.455 0.056l-0.456-0.007zM31.121 29.822h0.456c0.099 0.001 0.198-0.012 0.292-0.037 0.078-0.023 0.15-0.058 0.211-0.105 0.056-0.044 0.1-0.1 0.128-0.161 0.031-0.065 0.046-0.135 0.045-0.205 0.005-0.068-0.009-0.135-0.038-0.198s-0.074-0.119-0.132-0.166c-0.144-0.096-0.325-0.142-0.507-0.131h-0.456v1.002z"></path>
<path d="M36.188 30.998h-0.298c-0.030 0.001-0.059-0.007-0.083-0.023-0.021-0.015-0.038-0.035-0.049-0.056l-0.256-0.588h-1.288l-0.266 0.588c-0.010 0.021-0.026 0.040-0.047 0.055-0.024 0.016-0.054 0.025-0.085 0.024h-0.298l1.131-2.434h0.392l1.146 2.434zM34.322 30.094h1.063l-0.448-0.991c-0.034-0.075-0.063-0.151-0.085-0.229l-0.043 0.127c-0.013 0.039-0.028 0.074-0.042 0.103l-0.445 0.989z"></path>
<path d="M37.817 28.575c0.023 0.011 0.042 0.026 0.056 0.044l1.65 1.834c0-0.029 0-0.058 0-0.085s0-0.055 0-0.081v-1.724h0.338v2.434h-0.189c-0.027 0-0.053-0.004-0.077-0.014-0.023-0.012-0.044-0.027-0.060-0.045l-1.647-1.833c0.002 0.028 0.002 0.056 0 0.084 0 0.028 0 0.051 0 0.074v1.735h-0.338v-2.434h0.2c0.023-0 0.047 0.003 0.068 0.011z"></path>
<path d="M42.639 30.030v0.966h-0.377v-0.966l-1.042-1.466h0.338c0.029-0.002 0.058 0.006 0.081 0.021 0.021 0.016 0.037 0.034 0.051 0.055l0.652 0.945c0.027 0.040 0.049 0.077 0.068 0.113s0.033 0.069 0.047 0.103l0.049-0.105c0.019-0.038 0.040-0.075 0.064-0.111l0.643-0.952c0.013-0.019 0.029-0.036 0.049-0.051 0.023-0.017 0.052-0.025 0.081-0.024h0.341l-1.045 1.472z"></path>
<path d="M27.309 24.48c0.164 0.018 0.33 0.032 0.497 0.045 2.544-0.972 4.695-2.563 6.186-4.575s2.255-4.354 2.197-6.734l-2.803-2.395c0.57 2.534 0.303 5.154-0.77 7.566s-2.911 4.522-5.308 6.092z"></path>
<path d="M26.308 24.368l0.075 0.013c2.561-1.565 4.513-3.75 5.605-6.274s1.272-5.269 0.518-7.88l-3.993-3.411c1.615 2.804 2.265 5.942 1.874 9.049s-1.806 6.056-4.080 8.503z"></path>
<path d="M39.849 16.029c-0.679 2.615-2.326 4.974-4.697 6.726-0.693 0.514-1.44 0.973-2.232 1.369 1.932-0.485 3.707-1.342 5.189-2.506s2.632-2.603 3.36-4.207l-1.619-1.382z"></path>
<path d="M39.214 15.644l-2.305-1.97c-0.044 2.246-0.791 4.44-2.164 6.356s-3.321 3.482-5.642 4.536h0.011c0.517-0 1.034-0.026 1.547-0.079 2.169-0.756 4.086-1.96 5.578-3.503s2.514-3.378 2.975-5.341z"></path>
<path d="M26.642 5.378l-2.751-2.353c-2.459 0.812-4.573 2.239-6.067 4.095s-2.297 4.053-2.305 6.305v0c0.009 2.489 0.989 4.903 2.786 6.862s4.306 3.35 7.132 3.953c2.522-2.626 3.999-5.871 4.216-9.263s-0.838-6.755-3.012-9.6z"></path>
<path d="M45.569 15.281c-0.010-2.952-1.387-5.782-3.831-7.87s-5.755-3.264-9.211-3.273c-1.597-0.002-3.18 0.25-4.669 0.742l16.84 14.388c0.576-1.272 0.871-2.624 0.871-3.988z"></path>
</symbol>
<symbol id="icon-client-2" viewBox="0 0 61 32">
<path d="M29.529 4.118h-0.074c-0.113-0.007-0.226-0.010-0.339-0.012v0h-0.245c-0.214 0-0.432 0.006-0.648 0.017-0.016-0.001-0.033-0.001-0.049 0-1.963 0.111-3.885 0.602-5.663 1.445l-0.233 0.112v11.922l0.545-0.185c0.478-0.164 0.988-0.312 1.515-0.449 1.425-0.366 2.888-0.56 4.359-0.579v1.566c-0.195 0.001-0.384 0.007-0.573 0.017h-0.045c-1.132 0.062-2.255 0.235-3.354 0.515-1.392 0.348-2.734 0.871-3.995 1.557v-15.291c1.31-0.764 2.721-1.338 4.192-1.705 1.291-0.333 2.618-0.504 3.95-0.509h0.23c0.275 0.007 0.543 0.019 0.795 0.038 0.664 0.046 1.322 0.151 1.968 0.314v1.542c-0.627-0.146-1.265-0.242-1.907-0.288-0.013-0.001-0.026-0.002-0.039-0.003-0.133-0.011-0.266-0.023-0.39-0.023zM32.242 5.694c0.342 0.026 0.696 0.038 1.054 0.038 1.401-0.005 2.796-0.184 4.153-0.533 1.391-0.35 2.733-0.873 3.994-1.558v15.018c-1.311 0.764-2.722 1.338-4.193 1.705-1.291 0.332-2.618 0.503-3.95 0.508-1.010 0.008-2.017-0.111-2.997-0.353v-15.116c0.232 0.053 0.47 0.103 0.712 0.144 0.398 0.067 0.817 0.116 1.226 0.146zM39.886 5.811l-0.545 0.183c-0.501 0.169-1.007 0.319-1.515 0.453-1.479 0.38-3 0.575-4.526 0.58-0.356 0-0.682-0.010-0.998-0.030l-0.435-0.029v12.265l0.373 0.033c0.346 0.030 0.703 0.045 1.063 0.045 1.203-0.005 2.4-0.16 3.565-0.461 0.959-0.241 1.892-0.576 2.785-1.001l0.233-0.112v-11.927z"></path>
<path d="M21.788 25.269c-0.078-0.081-0.173-0.145-0.277-0.187s-0.216-0.062-0.329-0.058c-0.12-0.002-0.239 0.021-0.35 0.066-0.102 0.041-0.195 0.102-0.272 0.179s-0.137 0.171-0.176 0.274c-0.043 0.108-0.064 0.223-0.063 0.338v2.043c-0.005 0.144 0.023 0.287 0.080 0.419 0.048 0.105 0.118 0.198 0.204 0.274 0.082 0.069 0.178 0.118 0.281 0.145 0.099 0.028 0.202 0.042 0.305 0.043 0.114 0.001 0.227-0.023 0.33-0.071 0.102-0.045 0.195-0.109 0.272-0.189 0.076-0.079 0.136-0.172 0.178-0.274 0.044-0.103 0.066-0.214 0.066-0.326v-0.229h-0.534v0.182c0.002 0.062-0.009 0.124-0.031 0.182-0.017 0.043-0.044 0.083-0.078 0.115-0.033 0.027-0.071 0.047-0.112 0.059-0.036 0.012-0.074 0.018-0.112 0.019-0.048 0.006-0.096-0.002-0.14-0.021s-0.082-0.050-0.111-0.088c-0.050-0.082-0.075-0.178-0.071-0.274v-1.905c-0.003-0.106 0.019-0.21 0.066-0.305 0.028-0.043 0.067-0.078 0.113-0.099s0.098-0.030 0.148-0.024c0.046-0.002 0.092 0.008 0.133 0.028s0.078 0.050 0.105 0.087c0.060 0.078 0.091 0.175 0.088 0.274v0.177h0.529v-0.208c0.001-0.122-0.021-0.244-0.066-0.357-0.039-0.107-0.1-0.205-0.178-0.288z"></path>
<path d="M24.96 25.245c-0.17-0.144-0.385-0.223-0.608-0.225-0.109 0-0.217 0.020-0.319 0.057-0.104 0.037-0.199 0.094-0.282 0.167-0.088 0.080-0.159 0.177-0.207 0.286-0.054 0.125-0.080 0.26-0.078 0.396v1.959c-0.004 0.138 0.023 0.275 0.078 0.401 0.048 0.105 0.119 0.199 0.207 0.274 0.081 0.076 0.178 0.134 0.282 0.172 0.102 0.038 0.21 0.057 0.319 0.057s0.217-0.020 0.319-0.057c0.106-0.039 0.204-0.097 0.289-0.172s0.154-0.17 0.202-0.274c0.055-0.127 0.081-0.263 0.078-0.401v-1.959c0.003-0.136-0.024-0.271-0.078-0.396-0.048-0.108-0.116-0.205-0.202-0.286zM24.711 27.887c0.004 0.052-0.003 0.105-0.021 0.154s-0.048 0.093-0.085 0.13c-0.071 0.059-0.16 0.092-0.251 0.092s-0.181-0.032-0.251-0.092c-0.038-0.036-0.067-0.081-0.085-0.13s-0.026-0.102-0.021-0.154v-1.959c-0.004-0.052 0.003-0.105 0.021-0.154s0.047-0.094 0.085-0.13c0.071-0.059 0.16-0.092 0.251-0.092s0.181 0.032 0.251 0.092c0.038 0.036 0.067 0.081 0.085 0.13s0.025 0.102 0.021 0.154v1.959z"></path>
<path d="M29.127 28.762v-3.709h-0.514l-0.674 1.964h-0.010l-0.68-1.964h-0.508v3.709h0.53v-2.257h0.010l0.519 1.595h0.264l0.523-1.595h0.010v2.257h0.53z"></path>
<path d="M32.138 25.312c-0.081-0.092-0.185-0.161-0.3-0.203-0.124-0.040-0.254-0.060-0.384-0.057h-0.787v3.709h0.529v-1.449h0.272c0.165 0.008 0.329-0.027 0.477-0.101 0.12-0.067 0.22-0.165 0.29-0.283 0.061-0.099 0.102-0.209 0.121-0.323 0.021-0.139 0.031-0.281 0.029-0.422 0.005-0.178-0.012-0.356-0.052-0.53-0.035-0.129-0.102-0.246-0.195-0.341zM31.865 26.443c-0.002 0.067-0.019 0.133-0.049 0.193-0.030 0.057-0.078 0.103-0.136 0.13-0.078 0.035-0.164 0.051-0.249 0.046h-0.241v-1.261h0.272c0.082-0.004 0.164 0.012 0.238 0.046 0.055 0.031 0.098 0.079 0.124 0.137 0.029 0.065 0.045 0.136 0.046 0.207 0 0.078 0 0.16 0 0.246s0.006 0.175 0 0.255h-0.006z"></path>
<path d="M34.641 25.052h-0.433l-0.817 3.709h0.529l0.155-0.797h0.721l0.155 0.797h0.529l-0.838-3.709zM34.154 27.459l0.26-1.345h0.010l0.259 1.345h-0.529z"></path>
<path d="M38.056 27.287h-0.010l-0.798-2.235h-0.508v3.709h0.529v-2.23h0.011l0.808 2.23h0.497v-3.709h-0.529v2.235z"></path>
<path d="M41.286 25.052l-0.425 1.475h-0.011l-0.425-1.475h-0.56l0.726 2.141v1.568h0.529v-1.568l0.726-2.141h-0.559z"></path>
<path d="M20.314 29.809h0.255v0.715h0.173v-0.715h0.253v-0.146h-0.681v0.146z"></path>
<path d="M22.455 29.662l-0.334 0.861h0.184l0.071-0.196h0.343l0.074 0.196h0.188l-0.342-0.861h-0.184zM22.428 30.183l0.117-0.319 0.117 0.319h-0.234z"></path>
<path d="M24.572 30.206h0.199v0.111c-0.058 0.046-0.13 0.072-0.204 0.073-0.035 0.002-0.069-0.004-0.101-0.019s-0.060-0.036-0.081-0.063c-0.046-0.066-0.068-0.145-0.064-0.225 0-0.192 0.083-0.288 0.248-0.288 0.043-0.004 0.087 0.007 0.123 0.032s0.061 0.062 0.072 0.105l0.17-0.033c-0.037-0.169-0.158-0.253-0.365-0.253-0.111-0.003-0.218 0.037-0.301 0.111-0.043 0.043-0.077 0.095-0.098 0.152s-0.030 0.118-0.025 0.179c-0.005 0.118 0.034 0.233 0.11 0.323 0.042 0.043 0.093 0.077 0.15 0.099s0.117 0.031 0.177 0.027c0.135 0.004 0.266-0.045 0.365-0.137v-0.34h-0.373v0.145z"></path>
<path d="M26.734 29.662h-0.174v0.861h0.603v-0.146h-0.429v-0.715z"></path>
<path d="M28.562 29.662h-0.174v0.861h0.174v-0.861z"></path>
<path d="M30.349 30.237l-0.353-0.575h-0.169v0.861h0.162v-0.563l0.346 0.563h0.173v-0.861h-0.159v0.575z"></path>
<path d="M31.965 30.144h0.429v-0.146h-0.429v-0.189h0.462v-0.146h-0.636v0.861h0.654v-0.146h-0.48v-0.233z"></path>
<path d="M35.882 30.002h-0.339v-0.34h-0.173v0.861h0.173v-0.377h0.339v0.377h0.173v-0.861h-0.173v0.34z"></path>
<path d="M37.507 30.144h0.43v-0.146h-0.43v-0.189h0.463v-0.146h-0.636v0.861h0.652v-0.146h-0.479v-0.233z"></path>
<path d="M39.711 30.144c0.15-0.023 0.226-0.103 0.226-0.24 0.004-0.037-0.001-0.074-0.016-0.108s-0.038-0.063-0.068-0.084c-0.078-0.039-0.165-0.057-0.252-0.051h-0.365v0.861h0.173v-0.36h0.034c0.037-0.002 0.074 0.004 0.108 0.019 0.025 0.016 0.046 0.037 0.061 0.063l0.188 0.274h0.207l-0.105-0.169c-0.046-0.083-0.111-0.154-0.191-0.207zM39.537 30.025h-0.128v-0.216h0.136c0.059-0.005 0.119 0.002 0.176 0.020 0.012 0.011 0.023 0.025 0.029 0.041s0.010 0.032 0.009 0.049c-0.001 0.017-0.005 0.033-0.013 0.048s-0.019 0.028-0.033 0.038c-0.057 0.017-0.116 0.024-0.176 0.020z"></path>
<path d="M41.373 30.144h0.429v-0.146h-0.429v-0.189h0.463v-0.146h-0.638v0.861h0.654v-0.146h-0.479v-0.233z"></path>
</symbol>
<symbol id="icon-client-1" viewBox="0 0 61 32">
<path d="M22.199 3.482l4.178 3.98-7.754-0.004v19.309h20.267v-7.383l4.173 3.975v-19.877h-20.863zM38.706 18.916l-11.844-11.284h11.844v11.284zM35.029 23.942h-13.199v-12.986h0.933v12.107h12.266v0.879zM24.461 30.343l-0.492-1.012h-0.406l0.713 1.339v0.78h0.368v-0.78l0.713-1.339h-0.405l-0.492 1.012zM26.275 29.332h0.087l0.801 2.119h-0.384l-0.171-0.496h-0.82l-0.171 0.496h-0.382l0.797-2.119h0.244zM25.887 30.665h0.62l-0.311-0.899-0.31 0.899zM28.448 30.313c-0.016-0.020-0.031-0.040-0.046-0.059-0.054-0.072-0.097-0.141-0.127-0.208s-0.045-0.137-0.045-0.209c0-0.111 0.023-0.206 0.069-0.285s0.11-0.141 0.193-0.183c0.083-0.044 0.181-0.066 0.293-0.066 0.108 0 0.2 0.022 0.278 0.066 0.078 0.043 0.139 0.099 0.181 0.171 0.043 0.071 0.064 0.148 0.064 0.233 0 0.067-0.012 0.128-0.036 0.183s-0.058 0.106-0.101 0.151c-0.043 0.046-0.092 0.088-0.148 0.13l-0.147 0.108 0.419 0.495c0.014-0.027 0.026-0.056 0.038-0.086 0.036-0.094 0.053-0.197 0.053-0.31h0.303c0 0.102-0.010 0.2-0.031 0.293-0.019 0.092-0.051 0.178-0.095 0.256-0.018 0.032-0.038 0.064-0.060 0.094l0.311 0.367h-0.406l-0.123-0.144c-0.067 0.050-0.139 0.090-0.218 0.118-0.102 0.037-0.213 0.055-0.329 0.055-0.141 0-0.262-0.025-0.365-0.077s-0.183-0.122-0.239-0.213c-0.055-0.090-0.083-0.193-0.083-0.31 0-0.087 0.018-0.162 0.053-0.227s0.085-0.127 0.147-0.183c0.057-0.052 0.123-0.104 0.196-0.156zM28.621 30.527l-0.044 0.032c-0.052 0.041-0.090 0.082-0.115 0.121-0.024 0.038-0.040 0.073-0.048 0.105s-0.011 0.060-0.011 0.085c0 0.062 0.013 0.118 0.039 0.169s0.066 0.090 0.118 0.121c0.052 0.029 0.116 0.044 0.191 0.044 0.081 0 0.158-0.018 0.234-0.053 0.038-0.018 0.074-0.041 0.108-0.067l-0.472-0.554zM28.705 30.139l0.13-0.087c0.061-0.041 0.105-0.081 0.131-0.12s0.039-0.089 0.039-0.148c0-0.050-0.020-0.097-0.059-0.139s-0.094-0.064-0.164-0.064c-0.050 0-0.091 0.011-0.125 0.035-0.034 0.022-0.060 0.052-0.077 0.090s-0.025 0.078-0.025 0.123c0 0.044 0.011 0.088 0.034 0.136 0.022 0.046 0.053 0.094 0.092 0.144 0.008 0.010 0.016 0.020 0.024 0.031zM32.412 30.761h-0.364c-0.011 0.092-0.033 0.171-0.067 0.234-0.033 0.063-0.082 0.111-0.147 0.144-0.064 0.033-0.148 0.050-0.252 0.050-0.085 0-0.158-0.017-0.22-0.051s-0.111-0.082-0.151-0.144c-0.039-0.062-0.067-0.136-0.087-0.223-0.018-0.087-0.027-0.185-0.027-0.291v-0.179c0-0.113 0.010-0.213 0.031-0.3s0.053-0.162 0.095-0.223c0.041-0.060 0.094-0.106 0.156-0.137s0.135-0.046 0.218-0.046c0.102 0 0.185 0.017 0.248 0.052s0.111 0.083 0.143 0.148c0.033 0.065 0.054 0.143 0.064 0.234h0.364c-0.015-0.142-0.054-0.267-0.12-0.377-0.064-0.109-0.154-0.195-0.27-0.258s-0.259-0.094-0.428-0.094c-0.133 0-0.253 0.024-0.36 0.070s-0.197 0.114-0.272 0.202c-0.076 0.087-0.134 0.193-0.174 0.316s-0.060 0.261-0.060 0.414v0.176c0 0.152 0.020 0.29 0.059 0.414s0.097 0.228 0.172 0.316c0.074 0.087 0.164 0.153 0.269 0.2s0.223 0.070 0.354 0.070c0.171 0 0.316-0.031 0.435-0.094s0.212-0.147 0.278-0.255c0.066-0.109 0.105-0.232 0.116-0.371zM34.434 30.449v-0.116c0-0.16-0.022-0.304-0.064-0.43s-0.101-0.235-0.179-0.325c-0.078-0.090-0.171-0.158-0.278-0.206s-0.227-0.071-0.358-0.071c-0.13 0-0.249 0.024-0.356 0.071s-0.199 0.115-0.278 0.206c-0.078 0.089-0.137 0.197-0.181 0.325-0.043 0.126-0.064 0.269-0.064 0.43v0.116c0 0.16 0.022 0.304 0.064 0.431 0.044 0.127 0.105 0.235 0.183 0.325s0.171 0.158 0.278 0.206c0.108 0.046 0.227 0.070 0.356 0.070 0.131 0 0.25-0.024 0.358-0.070 0.108-0.048 0.2-0.116 0.276-0.206 0.078-0.089 0.137-0.197 0.179-0.325s0.062-0.27 0.062-0.431zM34.069 30.33v0.12c0 0.118-0.011 0.223-0.035 0.314-0.022 0.091-0.055 0.169-0.099 0.232-0.044 0.062-0.097 0.109-0.16 0.141s-0.136 0.046-0.217 0.046c-0.081 0-0.152-0.015-0.215-0.046-0.063-0.032-0.118-0.079-0.163-0.141-0.045-0.063-0.078-0.14-0.102-0.232s-0.035-0.196-0.035-0.314v-0.12c0-0.118 0.011-0.223 0.035-0.313 0.024-0.091 0.057-0.167 0.101-0.228s0.099-0.109 0.162-0.139c0.063-0.032 0.135-0.048 0.215-0.048s0.153 0.016 0.217 0.048c0.064 0.031 0.118 0.078 0.162 0.139s0.078 0.137 0.101 0.228c0.024 0.090 0.035 0.195 0.035 0.313z"></path>
</symbol>
<symbol id="icon-linkedin-1" viewBox="0 0 32 32">
<path d="M31.992 32v-0.001h0.008v-11.736c0-5.741-1.236-10.164-7.948-10.164-3.227 0-5.392 1.771-6.276 3.449h-0.093v-2.913h-6.364v21.364h6.627v-10.579c0-2.785 0.528-5.479 3.977-5.479 3.399 0 3.449 3.179 3.449 5.657v10.401h6.62z"></path>
<path d="M0.528 10.636h6.635v21.364h-6.635v-21.364z"></path>
<path d="M3.843-0c-2.121 0-3.843 1.721-3.843 3.843s1.721 3.879 3.843 3.879c2.121 0 3.843-1.757 3.843-3.879-0.001-2.121-1.723-3.843-3.843-3.843v0z"></path>
</symbol>
<symbol id="icon-facebook-1" viewBox="0 0 32 32">
<path d="M21.329 5.313h2.921v-5.088c-0.504-0.069-2.237-0.225-4.256-0.225-4.212 0-7.097 2.649-7.097 7.519v4.481h-4.648v5.688h4.648v14.312h5.699v-14.311h4.46l0.708-5.688h-5.169v-3.919c0.001-1.644 0.444-2.769 2.735-2.769z"></path>
</symbol>
<symbol id="icon-twitter-1" viewBox="0 0 32 32">
<path d="M32 6.078c-1.19 0.522-2.458 0.868-3.78 1.036 1.36-0.812 2.398-2.088 2.886-3.626-1.268 0.756-2.668 1.29-4.16 1.588-1.204-1.282-2.92-2.076-4.792-2.076-3.632 0-6.556 2.948-6.556 6.562 0 0.52 0.044 1.020 0.152 1.496-5.454-0.266-10.28-2.88-13.522-6.862-0.566 0.982-0.898 2.106-0.898 3.316 0 2.272 1.17 4.286 2.914 5.452-1.054-0.020-2.088-0.326-2.964-0.808 0 0.020 0 0.046 0 0.072 0 3.188 2.274 5.836 5.256 6.446-0.534 0.146-1.116 0.216-1.72 0.216-0.42 0-0.844-0.024-1.242-0.112 0.85 2.598 3.262 4.508 6.13 4.57-2.232 1.746-5.066 2.798-8.134 2.798-0.538 0-1.054-0.024-1.57-0.090 2.906 1.874 6.35 2.944 10.064 2.944 12.072 0 18.672-10 18.672-18.668 0-0.29-0.010-0.57-0.024-0.848 1.302-0.924 2.396-2.078 3.288-3.406z"></path>
</symbol>
<symbol id="icon-instagram-1" viewBox="0 0 32 32">
<path d="M32.218 9.305c-0.076-1.727-0.355-2.914-0.755-3.943-0.413-1.092-1.048-2.070-1.879-2.882-0.813-0.825-1.797-1.467-2.876-1.873-1.035-0.4-2.216-0.679-3.943-0.755-1.74-0.083-2.292-0.102-6.704-0.102s-4.965 0.019-6.698 0.095c-1.727 0.076-2.914 0.356-3.943 0.755-1.092 0.413-2.070 1.048-2.883 1.879-0.825 0.813-1.466 1.797-1.873 2.876-0.4 1.035-0.679 2.216-0.755 3.943-0.083 1.74-0.102 2.292-0.102 6.705s0.019 4.965 0.095 6.698c0.076 1.727 0.356 2.914 0.756 3.943 0.413 1.092 1.054 2.070 1.879 2.882 0.813 0.825 1.797 1.467 2.876 1.873 1.035 0.4 2.216 0.679 3.943 0.755 1.733 0.077 2.286 0.095 6.698 0.095s4.965-0.019 6.698-0.095c1.727-0.076 2.914-0.355 3.942-0.755 2.184-0.844 3.911-2.571 4.756-4.755 0.4-1.035 0.679-2.216 0.755-3.943 0.076-1.733 0.095-2.286 0.095-6.698s-0.007-4.965-0.083-6.698zM29.291 22.574c-0.070 1.587-0.337 2.444-0.559 3.016-0.546 1.416-1.67 2.54-3.086 3.086-0.571 0.222-1.435 0.489-3.016 0.559-1.714 0.076-2.228 0.095-6.565 0.095s-4.857-0.019-6.565-0.095c-1.587-0.070-2.444-0.336-3.016-0.559-0.705-0.26-1.346-0.673-1.866-1.213-0.54-0.527-0.952-1.162-1.213-1.867-0.222-0.571-0.489-1.435-0.558-3.016-0.076-1.714-0.095-2.228-0.095-6.565s0.019-4.857 0.095-6.565c0.070-1.587 0.336-2.444 0.558-3.016 0.26-0.705 0.673-1.346 1.219-1.867 0.527-0.54 1.162-0.952 1.866-1.212 0.571-0.222 1.435-0.489 3.016-0.559 1.714-0.076 2.229-0.095 6.565-0.095 4.343 0 4.857 0.019 6.565 0.095 1.587 0.070 2.444 0.337 3.016 0.559 0.704 0.26 1.346 0.673 1.867 1.212 0.54 0.527 0.952 1.162 1.213 1.867 0.222 0.571 0.489 1.435 0.559 3.016 0.076 1.714 0.095 2.228 0.095 6.565s-0.019 4.844-0.095 6.558z"></path>
<path d="M16.060 7.654c-4.609 0-8.349 3.739-8.349 8.349s3.74 8.349 8.349 8.349c4.609 0 8.349-3.739 8.349-8.349s-3.739-8.349-8.349-8.349zM16.060 21.419c-2.99 0-5.416-2.425-5.416-5.416s2.425-5.416 5.416-5.416c2.99 0 5.416 2.425 5.416 5.416s-2.425 5.416-5.416 5.416z"></path>
<path d="M26.688 7.324c0 1.076-0.873 1.949-1.949 1.949s-1.949-0.873-1.949-1.949c0-1.077 0.873-1.949 1.949-1.949s1.949 0.872 1.949 1.949z"></path>
</symbol>
<symbol id="icon-astronaut-1" viewBox="0 0 32 32">
<path d="M31.974 4.524c-0.063-0.193-0.229-0.333-0.43-0.363l-1.91-0.278-0.855-1.731c-0.179-0.365-0.777-0.365-0.956 0l-0.855 1.731-1.91 0.278c-0.201 0.029-0.367 0.17-0.431 0.363-0.062 0.193-0.011 0.405 0.135 0.547l1.383 1.348-0.326 1.903c-0.034 0.2 0.048 0.402 0.212 0.522 0.166 0.121 0.382 0.135 0.562 0.040l1.709-0.899 1.709 0.899c0.078 0.041 0.164 0.061 0.249 0.061 0.11 0 0.221-0.034 0.314-0.102 0.164-0.119 0.246-0.322 0.212-0.522l-0.326-1.903 1.383-1.348c0.145-0.142 0.197-0.354 0.135-0.547zM29.511 5.851c-0.125 0.122-0.183 0.299-0.153 0.472l0.191 1.114-1-0.526c-0.078-0.041-0.163-0.061-0.249-0.061s-0.17 0.020-0.249 0.061l-1.001 0.526 0.191-1.114c0.030-0.173-0.028-0.349-0.153-0.472l-0.81-0.789 1.119-0.163c0.174-0.025 0.324-0.134 0.402-0.292l0.5-1.013 0.5 1.013c0.078 0.157 0.228 0.267 0.402 0.292l1.119 0.163-0.809 0.789z"></path>
<path d="M26.134 20.522h-1.067v1.067h1.067v-1.067z"></path>
<path d="M26.134 22.656h-1.067v1.067h1.067v-1.067z"></path>
<path d="M27.2 21.589h-1.067v1.067h1.067v-1.067z"></path>
<path d="M25.067 21.589h-1.067v1.067h1.067v-1.067z"></path>
<path d="M22.4 26.389h-1.067v1.067h1.067v-1.067z"></path>
<path d="M22.4 28.522h-1.067v1.067h1.067v-1.067z"></path>
<path d="M23.467 27.456h-1.067v1.067h1.067v-1.067z"></path>
<path d="M21.333 27.456h-1.067v1.067h1.067v-1.067z"></path>
<path d="M16 24.256h-1.067v1.067h1.067v-1.067z"></path>
<path d="M16 26.389h-1.067v1.067h1.067v-1.067z"></path>
<path d="M17.067 25.322h-1.067v1.067h1.067v-1.067z"></path>
<path d="M14.933 25.322h-1.067v1.067h1.067v-1.067z"></path>
<path d="M5.867 6.122h-1.067v1.067h1.067v-1.067z"></path>
<path d="M5.867 8.255h-1.067v1.067h1.067v-1.067z"></path>
<path d="M6.933 7.189h-1.067v1.067h1.067v-1.067z"></path>
<path d="M4.8 7.189h-1.067v1.067h1.067v-1.067z"></path>
<path d="M24.715 14.159c-0.287-0.388-0.709-0.637-1.188-0.705-0.481-0.068-0.956 0.058-1.34 0.352l-1.252 0.96-1.898 1.417-1.358-0.541c2.421-1.086 4.114-3.508 4.114-6.32 0-3.823-3.123-6.933-6.961-6.933s-6.961 3.11-6.961 6.933c0 1.386 0.414 2.674 1.12 3.758l-2.764-0.024c-0.002 0-0.003 0-0.005 0-0.009 0-0.015 0.004-0.023 0.005-0.053 0.002-0.105 0.013-0.155 0.031-0.013 0.005-0.026 0.008-0.038 0.013-0.006 0.003-0.013 0.003-0.019 0.006l-3.233 1.596c-0.001 0-0.001 0-0.001 0.001l-1.893 0.911c-0.021 0.009-0.042 0.021-0.063 0.035-0.755 0.502-1.012 1.489-0.598 2.295 0.22 0.429 0.595 0.745 1.056 0.889 0.178 0.055 0.359 0.083 0.539 0.083 0.29 0 0.577-0.071 0.839-0.211l1.388-0.738 2.264-1.169 1.357-0.008-5.442 5.416c-0.001 0.001-0.001 0.001-0.002 0.001l-1.339 1.333c-0.316 0.315-0.49 0.732-0.49 1.178s0.174 0.863 0.49 1.179c0.325 0.323 0.752 0.485 1.179 0.485s0.854-0.162 1.18-0.485l1.314-1.309 1.741-1.3 0.901 0.897-1.762 1.754c-0 0.001-0.001 0.001-0.002 0.001l-1.339 1.333c-0.316 0.315-0.49 0.732-0.49 1.178s0.174 0.863 0.49 1.179c0.325 0.323 0.753 0.485 1.18 0.485s0.855-0.162 1.18-0.485l3.482-3.467c0.001-0.001 0.001-0.001 0.001-0.002l1.010-1-0.004-0.004c0.006-0.006 0.015-0.009 0.022-0.015l5.166-5.658 3.471 0.494c0.025 0.004 0.050 0.005 0.075 0.005 0.065 0 0.127-0.015 0.187-0.038 0.018-0.006 0.033-0.015 0.050-0.023 0.019-0.010 0.039-0.015 0.058-0.027l3.213-2.133c0.012-0.008 0.018-0.021 0.029-0.029 0.013-0.010 0.029-0.014 0.041-0.026l1.271-1.191c0.662-0.62 0.753-1.635 0.212-2.362zM2.13 17.77c-0.173 0.093-0.37 0.111-0.558 0.052-0.187-0.058-0.338-0.186-0.427-0.358-0.161-0.314-0.068-0.695 0.214-0.902l1.314-0.632 0.449 1.313-0.992 0.527zM5.628 15.942l-1.548 0.8-0.439-1.283 2.027-1.001-0.040 1.484zM20.727 9.322c0 0.918-0.219 1.785-0.599 2.559l-4.181-1.899c-0.044-0.573-0.341-1.075-0.788-1.388l1.464-4.86c2.378 0.756 4.105 2.974 4.105 5.588zM8.938 9.322c0-3.235 2.644-5.867 5.894-5.867 0.253 0 0.5 0.021 0.745 0.052l-1.432 4.754c-0.019-0.001-0.037-0.006-0.057-0.006-1.033 0-1.873 0.837-1.873 1.867s0.84 1.867 1.873 1.867c0.694 0 1.294-0.383 1.618-0.945l3.862 1.755c-1.075 1.446-2.795 2.39-4.737 2.39-3.25 0-5.894-2.632-5.894-5.867zM14.894 10.122c0 0.441-0.362 0.8-0.806 0.8s-0.806-0.359-0.806-0.8c0-0.441 0.362-0.8 0.806-0.8s0.806 0.359 0.806 0.8zM2.465 25.146c-0.236 0.234-0.619 0.234-0.854 0.001-0.114-0.114-0.176-0.263-0.176-0.423s0.062-0.309 0.176-0.421l0.962-0.958 0.851 0.848-0.959 0.955zM5.679 28.88c-0.236 0.234-0.619 0.235-0.855 0.001-0.114-0.114-0.176-0.263-0.176-0.423s0.062-0.309 0.176-0.421l0.963-0.959 0.852 0.848-0.96 0.955zM9.16 25.411c-0.001 0-0.001 0-0.002 0.001l-1.765 1.76-0.852-0.848 1.763-1.755c0 0 0 0 0-0s0.001-0.001 0.002-0.001c0.040-0.040 0.065-0.088 0.090-0.135 0.007-0.014 0.020-0.026 0.026-0.040 0.017-0.041 0.019-0.085 0.026-0.129 0.003-0.025 0.014-0.047 0.014-0.073 0-0.036-0.013-0.070-0.020-0.106-0.006-0.032-0.006-0.065-0.019-0.095-0.020-0.050-0.055-0.094-0.091-0.138-0.010-0.012-0.014-0.027-0.025-0.038 0 0 0 0-0.001 0s-0.001-0.002-0.001-0.002l-1.607-1.6c-0.017-0.017-0.039-0.024-0.058-0.038-0.028-0.022-0.055-0.042-0.087-0.058-0.030-0.015-0.061-0.024-0.093-0.033-0.034-0.010-0.067-0.017-0.103-0.020-0.033-0.002-0.063 0.001-0.095 0.005-0.036 0.004-0.069 0.009-0.104 0.020-0.034 0.011-0.063 0.027-0.094 0.045-0.020 0.011-0.042 0.015-0.061 0.029l-1.773 1.324-0.901-0.897 2.399-2.386 4.361 4.289-0.928 0.919zM15.979 18.394c-0.015-0.002-0.030 0.004-0.045 0.003-0.039-0.002-0.076 0.001-0.115 0.007-0.030 0.005-0.059 0.011-0.088 0.021-0.034 0.012-0.065 0.028-0.097 0.047-0.030 0.018-0.057 0.037-0.083 0.061-0.013 0.011-0.028 0.017-0.040 0.029l-4.698 5.146-4.328-4.257 2.833-2.818c0.209-0.208 0.21-0.546 0.002-0.755-0.105-0.105-0.243-0.157-0.381-0.156v-0.001l-2.219 0.013 0.028-1.607 3.104 0.027c1.265 1.294 3.029 2.101 4.981 2.101 0.437 0 0.864-0.045 1.279-0.123 0.040 0.032 0.079 0.065 0.13 0.085l2.41 0.96 0.152 0.758 0.178 0.885-3.003-0.427zM20.020 18.572l-0.313-1.558 1.446-1.080 0.947 1.257-2.080 1.381zM23.774 15.741l-0.838 0.785-0.931-1.236 0.831-0.637c0.155-0.119 0.351-0.168 0.543-0.143 0.193 0.027 0.364 0.128 0.48 0.284 0.217 0.292 0.18 0.699-0.085 0.947z"></path>
<path d="M13.602 18.544l-2.143-2.133c-0.207-0.207-0.545-0.207-0.753 0l-2.142 2.133c-0.1 0.101-0.157 0.236-0.157 0.378s0.056 0.278 0.157 0.378l2.142 2.133c0.104 0.103 0.241 0.155 0.377 0.155s0.273-0.052 0.376-0.155l2.143-2.133c0.1-0.1 0.157-0.236 0.157-0.378s-0.057-0.278-0.157-0.378zM11.083 20.303l-1.387-1.381 1.387-1.381 1.387 1.381-1.387 1.381z"></path>
<path d="M17.164 5.071l-0.258 1.036c0.071 0.018 1.738 0.452 1.738 2.149h1.067c-0-2.017-1.666-2.965-2.547-3.185z"></path>
<path d="M19.711 9.322h-1.067v1.067h1.067v-1.067z"></path>
</symbol>
<symbol id="icon-diagram-1" viewBox="0 0 32 32">
<path d="M14.926 14.965h1.066v4.798h-1.066v-4.797z"></path>
<path d="M19.19 17.097h1.066v2.665h-1.066v-2.665z"></path>
<path d="M10.661 18.696h1.066v1.066h-1.066v-1.066z"></path>
<path d="M7.463 18.163h1.066v1.599h-1.066v-1.599z"></path>
<path d="M1.599 28.291h25.587c0.883 0 1.599-0.716 1.599-1.599v-2.132c0-0.883-0.716-1.599-1.599-1.599h-0.533v-13.293l3.028-2.868c0.703 0.346 1.553 0.136 2.013-0.499s0.396-1.508-0.152-2.068-1.42-0.644-2.065-0.198c-0.644 0.446-0.873 1.292-0.542 2.002l-2.281 2.163v-1.23c0-0.883-0.716-1.599-1.599-1.599h-21.322c-0.883 0-1.599 0.716-1.599 1.599v15.992h-0.533c-0.883 0-1.599 0.716-1.599 1.599v2.132c0 0.883 0.716 1.599 1.599 1.599zM30.384 4.837c0.294 0 0.533 0.239 0.533 0.533s-0.239 0.533-0.533 0.533-0.533-0.239-0.533-0.533c0-0.294 0.239-0.533 0.533-0.533zM3.198 6.969c0-0.294 0.239-0.533 0.533-0.533h21.322c0.294 0 0.533 0.239 0.533 0.533v2.239l-1.066 1.013v-2.186c0-0.294-0.239-0.533-0.533-0.533h-19.19c-0.294 0-0.533 0.239-0.533 0.533v13.326c0 0.294 0.239 0.533 0.533 0.533h19.19c0.294 0 0.533-0.239 0.533-0.533v-9.674l1.066-1.010v12.284h-22.388v-15.992zM7.996 13.899c-0.721-0.002-1.354 0.478-1.546 1.174s0.105 1.433 0.725 1.801c0.62 0.368 1.41 0.276 1.928-0.226l1.853 0.93c0.215 0.108 0.476 0.057 0.636-0.123l3.939-4.431 3.872 2.901c0.208 0.156 0.498 0.139 0.686-0.039l3.365-3.188v8.131h-18.124v-12.26h18.124v2.66l-3.771 3.572-3.904-2.927c-0.222-0.166-0.534-0.135-0.718 0.072l-3.993 4.493-1.493-0.746c0.011-0.064 0.018-0.129 0.020-0.193 0-0.883-0.716-1.599-1.599-1.599zM8.529 15.498c0 0.294-0.239 0.533-0.533 0.533s-0.533-0.239-0.533-0.533c0-0.294 0.239-0.533 0.533-0.533s0.533 0.239 0.533 0.533zM11.727 24.027h5.331v0.533c0 0.294-0.239 0.533-0.533 0.533h-4.264c-0.294 0-0.533-0.239-0.533-0.533v-0.533zM1.066 24.56c0-0.294 0.239-0.533 0.533-0.533h9.062v0.533c0 0.883 0.716 1.599 1.599 1.599h4.264c0.883 0 1.599-0.716 1.599-1.599v-0.533h9.062c0.294 0 0.533 0.239 0.533 0.533v2.132c0 0.294-0.239 0.533-0.533 0.533h-25.587c-0.294 0-0.533-0.239-0.533-0.533v-2.132z"></path>
</symbol>
<symbol id="icon-clock-1" viewBox="0 0 32 32">
<path d="M31.297 15.301c-0.002-8.452-6.855-15.303-15.308-15.301s-15.303 6.855-15.301 15.308c0.001 6.658 4.307 12.551 10.649 14.576 0.061 0.019 0.124 0.029 0.187 0.029 0.121-0 0.239-0.032 0.342-0.094 0.135-0.080 0.236-0.207 0.283-0.356l3.865-12.25c1.057-0.005 1.909-0.866 1.903-1.923s-0.866-1.909-1.923-1.903c-0.284 0.001-0.565 0.067-0.82 0.191l-5.106-5.107c-0.253-0.245-0.657-0.238-0.902 0.016-0.239 0.247-0.239 0.639 0 0.886l5.103 5.109c-0.392 0.799-0.168 1.764 0.536 2.309l-3.683 11.673c-7.278-2.681-11.004-10.754-8.323-18.032s10.754-11.004 18.032-8.323c7.278 2.681 11.004 10.754 8.323 18.032-1.31 3.556-4.001 6.431-7.462 7.973l-0.398-1.874c-0.073-0.345-0.411-0.565-0.756-0.492-0.109 0.023-0.209 0.074-0.293 0.148l-3.837 3.426c-0.263 0.234-0.287 0.637-0.052 0.9 0.076 0.085 0.174 0.149 0.283 0.184l4.899 1.564c0.335 0.108 0.694-0.077 0.802-0.412 0.034-0.106 0.040-0.219 0.017-0.328l-0.391-1.839c5.664-2.388 9.342-7.942 9.329-14.089zM15.992 14.664c0.352 0 0.638 0.286 0.638 0.638s-0.286 0.638-0.638 0.638c-0.352 0-0.638-0.285-0.638-0.638s0.285-0.638 0.638-0.638zM18.093 29.528l2.184-1.948 0.603 2.84-2.787-0.892z"></path>
<path d="M15.354 3.185v1.275c0 0.352 0.285 0.638 0.638 0.638s0.638-0.285 0.638-0.638v-1.275c0-0.352-0.286-0.638-0.638-0.638s-0.638 0.286-0.638 0.638z"></path>
<path d="M3.876 14.664c-0.352 0-0.638 0.286-0.638 0.638s0.285 0.638 0.638 0.638h1.275c0.352 0 0.638-0.285 0.638-0.638s-0.285-0.638-0.638-0.638h-1.275z"></path>
<path d="M28.108 15.939c0.352 0 0.638-0.285 0.638-0.638s-0.285-0.638-0.638-0.638h-1.275c-0.352 0-0.638 0.286-0.638 0.638s0.286 0.638 0.638 0.638h1.275z"></path>
</symbol>
<symbol id="icon-antenna-1" viewBox="0 0 32 32">
<path d="M30.773 22.098l-8.443-8.505 0.937-4.615c0.242 0.094 0.499 0.144 0.758 0.146h0.006c1.192 0.014 2.17-0.941 2.184-2.133s-0.941-2.17-2.133-2.184c-1.192-0.014-2.17 0.941-2.184 2.133-0.003 0.255 0.039 0.509 0.125 0.749l-4.96 0.605-8.091-8.133c-0.099-0.101-0.235-0.159-0.377-0.16-0.14 0.001-0.274 0.056-0.373 0.155l-1.513 1.504c-0.208 0.208-0.208 0.546 0 0.754l0.814 0.826c-3.153 5.798-2.129 12.978 2.519 17.663 0.043 0.041 0.092 0.074 0.146 0.098-0.034 0.18-0.051 0.364-0.052 0.547v6.187h-6.4c-1.472 0.002-2.665 1.195-2.667 2.667v1.067c0 0.295 0.239 0.533 0.533 0.533h24.533c0.295 0 0.533-0.239 0.533-0.533v-1.067c-0.002-1.472-1.195-2.665-2.667-2.667h-6.4v-2.742c1.003 0.21 2.024 0.317 3.049 0.32 2.458-0.003 4.877-0.615 7.040-1.783l0.818 0.823c0.099 0.101 0.235 0.159 0.377 0.16 0.14-0.001 0.274-0.056 0.373-0.155l1.513-1.504c0.208-0.208 0.208-0.546 0-0.754zM23.28 6.233c0.418-0.415 1.093-0.414 1.509 0.004s0.414 1.093-0.004 1.508c-0.2 0.199-0.47 0.31-0.752 0.31h-0.003c-0.589-0.003-1.064-0.483-1.061-1.072 0.002-0.282 0.115-0.552 0.314-0.751h-0.002zM22.024 9.738l-0.598 2.946-1.175-1.182 1.774-1.763zM21.419 8.836l-1.92 1.909-1.485-1.493 3.405-0.415zM24.004 28.8c0.884 0 1.6 0.716 1.6 1.6v0.533h-23.467v-0.533c0-0.884 0.716-1.6 1.6-1.6h20.267zM16.537 26.667v1.067h-5.333v-1.067h5.333zM11.204 25.6v-4.053c0-1.294 1.196-2.347 2.667-2.347s2.667 1.053 2.667 2.347v4.053h-5.333zM17.604 23.904v-2.357c0-1.882-1.675-3.413-3.733-3.413-1.331-0.020-2.576 0.657-3.281 1.786-4.058-4.274-4.971-10.645-2.279-15.887l18.602 18.708c-2.872 1.461-6.165 1.873-9.309 1.163zM28.893 23.22l-21.057-21.181 0.755-0.752 7.935 7.98c0.004 0 0.006 0.007 0.010 0.010l13.115 13.191-0.757 0.752z"></path>
<path d="M13.876 20.267h-0.005c-0.884-0.001-1.601 0.714-1.602 1.598s0.714 1.601 1.598 1.602h0.005c0.884 0.001 1.601-0.714 1.602-1.598s-0.714-1.601-1.598-1.602zM14.249 22.245c-0.1 0.1-0.236 0.156-0.378 0.155-0.295-0.002-0.532-0.242-0.531-0.536 0.001-0.141 0.057-0.276 0.157-0.375s0.233-0.154 0.373-0.155c0.295 0.002 0.532 0.242 0.531 0.536-0.001 0.141-0.057 0.276-0.157 0.375h0.005z"></path>
</symbol>
</defs>
</svg>
