<svg xmlns="http://www.w3.org/2000/svg" aria-hidden="true" style="position:absolute;width:0;height:0;overflow:hidden"><defs><symbol id="icon-Checkbox" viewBox="0 0 32 32"><path d="M26.796 4.266a2.873 2.873 0 0 1 4.006.03 2.906 2.906 0 0 1 .106 4.027L15.571 27.607a2.89 2.89 0 0 1-2.059.925 2.884 2.884 0 0 1-2.092-.847L1.25 17.46c-.283-.265-.511-.585-.668-.941a2.929 2.929 0 0 1-.04-2.265 2.904 2.904 0 0 1 1.593-1.602 2.875 2.875 0 0 1 3.189.711l8.049 8.088 13.349-17.1c.024-.03.05-.058.077-.085h-.003z"/></symbol><symbol id="icon-paper-plane" viewBox="0 0 32 32"><path d="M29 5.167 3 17.355l8.309 2.564L24.125 9.907l-9.748 10.959.008.002-.01-.002v5.968l4.66-4.53 5.903 1.822L29 5.168z"/></symbol><symbol id="icon-email" viewBox="0 0 24 32"><path d="M19.1 8.9H4.9c-.976 0-1.766.799-1.766 1.775l-.009 10.65A1.78 1.78 0 0 0 4.9 23.1h14.2a1.78 1.78 0 0 0 1.775-1.775v-10.65A1.78 1.78 0 0 0 19.1 8.9zm-.355 3.772-6.275 3.923a.9.9 0 0 1-.941 0l-6.275-3.923a.754.754 0 1 1 .799-1.278l5.946 3.719 5.946-3.719a.754.754 0 1 1 .799 1.278z"/></symbol><symbol id="icon-phone" viewBox="0 0 24 32"><path d="m19.268 18.367-2.333-.267a1.832 1.832 0 0 0-1.506.523l-1.69 1.69a13.828 13.828 0 0 1-6.053-6.053l1.699-1.699c.395-.395.588-.946.523-1.506L9.641 8.74a1.838 1.838 0 0 0-1.828-1.626H6.224c-1.038 0-1.901.864-1.837 1.901.487 7.844 6.76 14.108 14.595 14.595 1.038.064 1.901-.799 1.901-1.837v-1.589a1.821 1.821 0 0 0-1.616-1.819z"/></symbol><symbol id="icon-person" viewBox="0 0 32 32"><path d="M16 16c3.729 0 6.75-3.021 6.75-6.75S19.729 2.5 16 2.5 9.25 5.521 9.25 9.25 12.271 16 16 16zm0 3.375c-4.506 0-13.5 2.261-13.5 6.75v1.688c0 .928.759 1.688 1.688 1.688h23.625c.928 0 1.688-.759 1.688-1.688v-1.688c0-4.489-8.994-6.75-13.5-6.75z"/></symbol><symbol id="icon-icon-close" viewBox="0 0 32 32"><path d="M32 3.223 28.777 0 16 12.777 3.223 0 0 3.223 12.777 16 0 28.777 3.223 32 16 19.223 28.777 32 32 28.777 19.223 16 32 3.223z"/></symbol><symbol id="icon-client-6" viewBox="0 0 61 32"><path d="M31.399 15.689a1.652 1.652 0 0 1-.339-1.114V12.96c0-.495.112-.871.337-1.128s.61-.385 1.157-.384c.514 0 .879.11 1.094.328.235.279.35.621.324.966v.379h-.919v-.384a1.972 1.972 0 0 0-.027-.376.365.365 0 0 0-.131-.224.534.534 0 0 0-.333-.087.565.565 0 0 0-.35.092.43.43 0 0 0-.152.246 1.911 1.911 0 0 0-.036.399v1.959a.995.995 0 0 0 .118.55c.046.058.109.104.184.133s.156.04.237.031a.503.503 0 0 0 .325-.089.394.394 0 0 0 .137-.238c.021-.13.031-.261.028-.393v-.397h.919v.363c.026.359-.086.716-.318 1.015-.211.24-.571.36-1.1.36s-.929-.128-1.155-.394zM35.227 15.705c-.232-.251-.348-.617-.348-1.102v-1.698c0-.48.116-.843.348-1.089s.62-.369 1.165-.368c.54 0 .927.123 1.159.368s.35.61.35 1.089v1.698c0 .48-.118.848-.354 1.1s-.62.379-1.155.379-.931-.128-1.165-.378zm1.593-.407a.948.948 0 0 0 .11-.503v-2.079a.928.928 0 0 0-.108-.493c-.047-.059-.112-.106-.188-.135s-.16-.039-.242-.029c-.082-.01-.167 0-.243.029s-.142.076-.189.135a.893.893 0 0 0-.11.493v2.089a.93.93 0 0 0 .11.503c.054.053.12.095.194.125s.155.044.236.044.162-.015.236-.044a.578.578 0 0 0 .194-.125v-.01zM39.007 11.498h.989l.744 3.134.762-3.134h.963l.097 4.523h-.712l-.076-3.143-.734 3.143h-.571l-.762-3.155-.07 3.155h-.72l.09-4.523zM43.673 11.498h1.542c.888 0 1.332.428 1.332 1.284 0 .82-.468 1.229-1.403 1.228h-.525v2.01h-.951l.005-4.523zm1.317 1.932c.094.01.19.003.28-.022s.173-.066.243-.121a.735.735 0 0 0 .137-.511 1.429 1.429 0 0 0-.045-.411c-.014-.045-.038-.087-.07-.124s-.073-.068-.12-.091a.983.983 0 0 0-.424-.072h-.37v1.352h.37zM47.919 11.498h1.022l1.049 4.523h-.887l-.207-1.043h-.912l-.213 1.043h-.9l1.049-4.523zm.873 2.956-.356-1.898-.356 1.898h.712zM50.837 11.498h.666l1.275 2.58v-2.58h.79v4.523h-.634l-1.283-2.693v2.693h-.816l.002-4.523zM55.418 14.296l-1.06-2.792h.893l.647 1.793.607-1.793h.874l-1.047 2.792v1.724h-.914v-1.724zM32.869 17.998v.236h-.777v1.838h-.325v-1.838h-.78v-.236h1.883zM35.303 20.072h-.251a.113.113 0 0 1-.07-.02.108.108 0 0 1-.042-.048l-.225-.493h-1.077l-.225.493a.13.13 0 0 1-.034.056.115.115 0 0 1-.07.02h-.251l.952-2.074h.331l.963 2.066zm-1.576-.77h.899l-.381-.844a1.566 1.566 0 0 1-.07-.195l-.036.11-.034.087-.377.842zM36.944 19.869c.059.003.119.003.179 0a1.12 1.12 0 0 0 .152-.025c.047-.01.092-.022.137-.038.042-.015.084-.033.127-.051v-.467h-.381c-.009.001-.019-.001-.028-.004a.07.07 0 0 1-.039-.03.04.04 0 0 1-.005-.021v-.159h.739v.795a1.414 1.414 0 0 1-.401.17c-.078.02-.158.034-.238.043a2.859 2.859 0 0 1-.278.013 1.467 1.467 0 0 1-.48-.077 1.151 1.151 0 0 1-.38-.217 1.004 1.004 0 0 1-.245-.328 1.042 1.042 0 0 1-.088-.43 1.071 1.071 0 0 1 .086-.434.948.948 0 0 1 .245-.328c.108-.093.238-.167.38-.215.163-.053.336-.079.51-.077.088 0 .177.006.265.018a1.248 1.248 0 0 1 .417.135c.058.032.114.069.165.108l-.091.128c-.007.012-.018.022-.031.028s-.028.011-.043.011a.13.13 0 0 1-.059-.016 1.462 1.462 0 0 1-.093-.049.845.845 0 0 0-.127-.056 1.286 1.286 0 0 0-.175-.046 1.401 1.401 0 0 0-.242-.018 1.11 1.11 0 0 0-.367.058.723.723 0 0 0-.457.422.968.968 0 0 0 0 .691.744.744 0 0 0 .19.261.815.815 0 0 0 .278.164c.121.036.249.05.377.041zM39.978 19.836h1.039v.236H39.66v-2.075h.325l-.008 1.838zM42.098 20.072h-.325v-2.075h.325v2.075zM43.309 18.008c.019.01.036.022.049.038l1.391 1.564a.457.457 0 0 1 0-.074v-1.545h.284v2.083h-.164a.14.14 0 0 1-.07-.012.197.197 0 0 1-.051-.039l-1.389-1.562v1.613h-.272v-2.075h.169c.018 0 .037.003.054.01zM47.43 17.998v.228h-1.154v.685h.935v.22h-.935v.708h1.154v.228h-1.489v-2.069h1.489zM13.323 5.187l14.452 3.541v12.408l-14.452-3.539V5.187zm-.927-1.057V18.2L28.7 22.196V8.127L12.396 4.129z"/><path d="M21.135 28.727 4.829 24.728V10.659l16.306 3.998v14.071z"/><path d="m12.667 5.028 14.264 3.497-6.066 5.236-14.266-3.498 6.068-5.234zm-.271-.898-7.568 6.53 16.306 3.998 7.566-6.53L12.396 4.13zM22.052 27.936l6.648-5.738-6.648-1.631v7.369z"/></symbol><symbol id="icon-client-5" viewBox="0 0 61 32"><path d="M16.337 25.228a.792.792 0 0 1 .208.545c.007.13-.019.258-.074.377s-.141.225-.249.311a1.513 1.513 0 0 1-.938.252h-1.649v-3.456h1.615c.319-.019.635.062.894.23.104.079.187.178.241.29s.079.234.072.357a.75.75 0 0 1-.187.528.886.886 0 0 1-.491.27.967.967 0 0 1 .557.295zm-1.934-.522h.69a.7.7 0 0 0 .439-.115c.052-.042.092-.095.118-.153s.036-.122.03-.184c.005-.062-.006-.125-.031-.184s-.065-.111-.115-.154a.718.718 0 0 0-.452-.116h-.679v.907zm1.197 1.326c.055-.043.099-.097.127-.158s.041-.127.036-.193c.004-.067-.008-.133-.038-.195s-.073-.116-.13-.16a.773.773 0 0 0-.469-.125h-.724v.951h.734a.792.792 0 0 0 .463-.12zM19.637 26.714l-.899-1.351H18.4v1.351h-.772v-3.456h1.463c.369-.023.734.082 1.018.294.204.187.328.435.348.697s-.065.522-.239.733c-.181.186-.427.31-.698.351l.956 1.381h-.84zm-1.236-1.821h.632c.439 0 .658-.174.658-.523.005-.071-.008-.143-.035-.209s-.071-.128-.126-.179a.736.736 0 0 0-.497-.14h-.639l.008 1.052zM23.862 26.019h-1.54l-.272.696h-.81l1.414-3.418h.876l1.409 3.418h-.81l-.266-.696zm-.207-.524-.563-1.459-.563 1.459h1.125zM29.149 26.714h-.767l-1.72-2.351v2.351h-.765v-3.456h.765l1.72 2.364v-2.364h.767v3.456zM33.527 25.887a1.594 1.594 0 0 1-.694.61 2.464 2.464 0 0 1-1.078.218H30.39v-3.456h1.365c.373-.009.743.065 1.078.213.294.133.536.344.694.603.158.281.24.592.24.907s-.082.626-.24.907zm-.878-.083c.219-.23.339-.522.339-.825s-.12-.595-.339-.825a1.429 1.429 0 0 0-.96-.294h-.533v2.237h.533c.351.02.696-.086.96-.294zM24.342 4.032s9.901 3.365 9.691 8.235v8.237s-9.894-3.367-9.687-8.237l-.004-8.235zM42.854 18.576a14.52 14.52 0 0 1 6.291-2.087V13.91c-2.602.902-4.808 2.54-6.291 4.665z"/><path d="M41.731 19.353c1.53-2.774 4.184-4.916 7.414-5.983V5.94s-14.101 4.794-13.803 11.729v11.727s.628-.214 1.617-.616c0-.375 0-.753.045-1.133.292-3.22 1.992-6.203 4.727-8.294z"/><path d="M40.389 23.709c.074-.813.239-1.618.493-2.401-1.703 1.806-2.734 4.047-2.949 6.408a9.952 9.952 0 0 0-.038.675 42.212 42.212 0 0 0 2.712-1.287 10.957 10.957 0 0 1-.22-3.396zM40.95 23.751a10.45 10.45 0 0 0 .175 3.075c3.852-2.075 8.181-5.282 8.015-9.157v-.338c-2.752.277-5.328 1.36-7.33 3.083a10.635 10.635 0 0 0-.859 3.337z"/></symbol><symbol id="icon-client-4" viewBox="0 0 61 32"><path d="M11.475 11.573h-.002c-1.629 0-2.95 1.191-2.95 2.66v.002c0 1.469 1.321 2.66 2.95 2.66h.002c1.629 0 2.95-1.191 2.95-2.66v-.002c0-1.469-1.321-2.66-2.95-2.66zM33.249 10.723c-.005-2.04-.905-3.996-2.506-5.439s-3.768-2.256-6.032-2.26c-2.264.004-4.433.816-6.034 2.259s-2.502 3.399-2.507 5.44v11.251s17.076-1.715 17.078-11.249v-.002zM2.543 25.667c.004 1.42.631 2.78 1.744 3.784s2.622 1.57 4.197 1.574c1.574-.004 3.082-.57 4.196-1.573s1.741-2.364 1.745-3.783V17.84S2.543 19.034 2.543 25.667zm5.941 1.402c-.308 0-.609-.082-.864-.236s-.455-.373-.573-.63-.149-.538-.089-.81.208-.522.426-.718.495-.33.797-.384.615-.026.899.08c.284.106.527.286.698.517s.262.502.262.779c.001.185-.039.368-.117.538s-.192.326-.337.457c-.145.131-.316.235-.505.306s-.392.107-.597.107v-.005zM19.35 24.547v2.913h-.6v-2.913h.6zm1.16 1.245v.468h-1.325v-.468h1.325zm.141-1.245v.47h-1.465v-.47h1.465zm2.741 1.388v.138c0 .222-.03.42-.09.596s-.145.326-.254.45a1.09 1.09 0 0 1-.392.282 1.256 1.256 0 0 1-.502.098c-.183 0-.35-.033-.502-.098a1.117 1.117 0 0 1-.392-.282 1.307 1.307 0 0 1-.258-.45 1.842 1.842 0 0 1-.09-.596v-.138c0-.223.03-.422.09-.596.06-.176.145-.326.254-.45a1.11 1.11 0 0 1 .392-.284c.152-.065.32-.098.502-.098.184 0 .352.033.502.098.152.065.283.16.392.284.111.124.196.274.256.45.061.175.092.373.092.596zm-.607.139v-.142c0-.155-.014-.291-.042-.408s-.069-.216-.124-.296a.535.535 0 0 0-.47-.242.578.578 0 0 0-.27.062.545.545 0 0 0-.198.18c-.054.08-.094.179-.122.296s-.042.253-.042.408v.142c0 .154.014.289.042.408a.9.9 0 0 0 .124.298c.055.08.121.141.2.182s.169.062.27.062.191-.021.27-.062a.53.53 0 0 0 .198-.182.921.921 0 0 0 .122-.298 1.79 1.79 0 0 0 .042-.408zm2.555.624a.384.384 0 0 0-.024-.14.264.264 0 0 0-.084-.116c-.041-.036-.099-.071-.174-.106s-.171-.071-.29-.108a3.865 3.865 0 0 1-.376-.144 1.506 1.506 0 0 1-.312-.186.839.839 0 0 1-.212-.25.687.687 0 0 1-.076-.33c0-.121.027-.231.08-.33a.76.76 0 0 1 .224-.256c.096-.072.21-.127.34-.166.132-.039.277-.058.434-.058.215 0 .402.039.562.116s.284.183.372.318a.82.82 0 0 1 .134.462h-.596a.45.45 0 0 0-.054-.224.367.367 0 0 0-.16-.154.575.575 0 0 0-.268-.056.62.62 0 0 0-.26.048.355.355 0 0 0-.156.126.308.308 0 0 0-.052.176c0 .049.012.094.036.134.025.04.063.077.112.112s.11.068.182.098c.072.031.155.061.25.09.159.048.298.102.418.162.121.06.223.127.304.202s.143.159.184.254.062.202.062.322c0 .127-.025.24-.074.34s-.121.185-.214.254-.205.122-.334.158a1.616 1.616 0 0 1-.434.054 1.66 1.66 0 0 1-.426-.056 1.315 1.315 0 0 1-.382-.174c-.113-.077-.204-.176-.272-.296s-.102-.262-.102-.426h.602c0 .091.014.167.042.23s.067.113.118.152a.494.494 0 0 0 .184.084c.072.017.151.026.236.026a.647.647 0 0 0 .256-.044.314.314 0 0 0 .2-.298zm2.311-2.151v2.913h-.598v-2.913h.598zm.897 0v.47h-2.377v-.47h2.377zm2.297 2.445v.468h-1.551v-.468h1.551zm-1.355-2.445v2.913h-.6v-2.913h.6zm1.153 1.187v.456h-1.349v-.456h1.349zm.2-1.187v.47h-1.549v-.47h1.549zm.352 0h1.087c.223 0 .414.033.574.1.161.067.285.166.372.296s.13.292.13.482c0 .156-.027.29-.08.402a.753.753 0 0 1-.222.278 1.164 1.164 0 0 1-.334.176l-.19.1h-.945l-.004-.468h.702c.105 0 .193-.019.262-.056s.121-.089.156-.156a.482.482 0 0 0 .054-.232c0-.093-.017-.174-.052-.242s-.087-.12-.158-.156-.159-.054-.266-.054h-.486v2.443h-.6v-2.913zm1.629 2.913-.664-1.299.634-.004.672 1.274v.028h-.642zm3.151-1.038h-.742v-.468h.742a.611.611 0 0 0 .28-.056c.072-.039.125-.092.158-.16s.05-.145.05-.23c0-.087-.017-.168-.05-.242s-.086-.135-.158-.18-.166-.068-.28-.068h-.534v2.443h-.6v-2.913h1.134c.228 0 .423.041.586.124a.885.885 0 0 1 .506.832c0 .188-.043.351-.13.488s-.212.243-.376.318a1.393 1.393 0 0 1-.586.112zm3.461.57v.468h-1.551v-.468h1.551zm-1.355-2.445v2.913h-.6v-2.913h.6zm1.153 1.187v.456h-1.349v-.456h1.349zm.2-1.187v.47h-1.549v-.47h1.549zm1.695 0v2.913h-.598v-2.913h.598zm.896 0v.47h-2.377v-.47h2.377zm2.297 2.445v.468h-1.55v-.468h1.55zm-1.354-2.445v2.913h-.6v-2.913h.6zm1.152 1.187v.456h-1.348v-.456h1.348zm.2-1.187v.47h-1.548v-.47h1.548zm.352 0h1.087c.223 0 .414.033.574.1s.285.166.372.296.13.292.13.482c0 .156-.027.29-.08.402a.753.753 0 0 1-.222.278 1.157 1.157 0 0 1-.335.176l-.19.1h-.945l-.004-.468h.703c.105 0 .193-.019.261-.056s.121-.089.156-.156a.482.482 0 0 0 .054-.232c0-.093-.017-.174-.052-.242s-.087-.12-.159-.156a.58.58 0 0 0-.266-.054h-.486v2.443h-.6v-2.913zm1.629 2.913-.665-1.299.635-.004.672 1.274v.028h-.642zm2.513-.762a.364.364 0 0 0-.024-.14.25.25 0 0 0-.084-.116c-.041-.036-.099-.071-.174-.106s-.171-.071-.289-.108a3.768 3.768 0 0 1-.376-.144 1.533 1.533 0 0 1-.312-.186.825.825 0 0 1-.212-.25.687.687 0 0 1-.076-.33c0-.121.027-.231.08-.33a.76.76 0 0 1 .224-.256c.096-.072.21-.127.34-.166.133-.039.277-.058.434-.058.215 0 .402.039.562.116s.284.183.372.318a.82.82 0 0 1 .134.462h-.596a.45.45 0 0 0-.054-.224c-.034-.065-.088-.117-.16-.154s-.16-.056-.268-.056a.62.62 0 0 0-.26.048.355.355 0 0 0-.156.126.308.308 0 0 0-.052.176c0 .049.012.094.036.134s.062.077.112.112c.049.035.11.068.182.098s.156.061.25.09c.159.048.299.102.419.162s.223.127.304.202.143.159.184.254a.804.804 0 0 1 .061.322c0 .127-.025.24-.074.34s-.121.185-.215.254c-.093.069-.204.122-.334.158s-.274.054-.434.054c-.143 0-.285-.019-.426-.056a1.315 1.315 0 0 1-.382-.174.84.84 0 0 1-.375-.722h.602c0 .091.014.167.042.23s.068.113.118.152c.052.039.113.067.184.084s.15.026.236.026a.64.64 0 0 0 .256-.044.314.314 0 0 0 .2-.298z"/></symbol><symbol id="icon-client-3" viewBox="0 0 61 32"><path d="M20.171 30.494a.087.087 0 0 1 .058.022l.151.142a1.248 1.248 0 0 1-.424.269c-.19.068-.395.101-.602.097a1.652 1.652 0 0 1-.565-.09 1.267 1.267 0 0 1-.426-.254 1.135 1.135 0 0 1-.275-.393 1.294 1.294 0 0 1-.096-.504 1.167 1.167 0 0 1 .396-.899c.129-.111.283-.198.453-.256.186-.061.383-.092.583-.09a1.59 1.59 0 0 1 .541.082c.149.056.287.132.406.227l-.126.152a.124.124 0 0 1-.032.028.082.082 0 0 1-.051.011.13.13 0 0 1-.055-.016l-.068-.04-.094-.051a1.138 1.138 0 0 0-.522-.106 1.202 1.202 0 0 0-.418.068.955.955 0 0 0-.328.19.885.885 0 0 0-.213.303 1.005 1.005 0 0 0-.077.399c-.002.138.024.275.077.406a.889.889 0 0 0 .209.301.852.852 0 0 0 .313.187c.123.044.255.065.388.065.077.001.154-.003.23-.013a.93.93 0 0 0 .498-.208.12.12 0 0 1 .072-.026zM24.525 29.781c.002.171-.032.341-.102.501-.061.145-.158.278-.284.389s-.278.198-.446.255c-.369.12-.777.12-1.146 0a1.317 1.317 0 0 1-.443-.256 1.148 1.148 0 0 1-.287-.393 1.284 1.284 0 0 1 0-1.003c.064-.147.161-.28.287-.394.126-.107.277-.191.443-.247a1.84 1.84 0 0 1 1.146 0c.168.058.319.145.445.256a1.16 1.16 0 0 1 .387.892zm-.396 0a1.037 1.037 0 0 0-.072-.403.82.82 0 0 0-.202-.301.891.891 0 0 0-.319-.19 1.347 1.347 0 0 0-.833 0 .9.9 0 0 0-.319.19.803.803 0 0 0-.203.301 1.161 1.161 0 0 0 0 .805.815.815 0 0 0 .203.301.904.904 0 0 0 .319.189c.268.086.565.086.833 0a.898.898 0 0 0 .319-.189.841.841 0 0 0 .202-.301c.051-.13.075-.266.072-.403zM27.496 30.204l.04.09c.015-.032.028-.061.043-.09s.031-.06.049-.089l.963-1.496c.019-.026.036-.042.055-.047a.262.262 0 0 1 .079-.008h.285v2.434h-.338v-1.865a.589.589 0 0 1 0-.084l-.969 1.517c-.012.023-.032.042-.057.056s-.054.021-.083.021h-.055c-.029 0-.058-.007-.083-.02s-.044-.033-.056-.056l-.997-1.527V30.993h-.326v-2.429h.285a.295.295 0 0 1 .079.008c.023.01.042.026.053.047l.984 1.498a.536.536 0 0 1 .049.087zM31.121 30.083v.912h-.377v-2.43h.841a1.84 1.84 0 0 1 .469.053.94.94 0 0 1 .332.152.635.635 0 0 1 .189.238.732.732 0 0 1 .064.311.68.68 0 0 1-.273.554.968.968 0 0 1-.334.161c-.147.04-.301.059-.455.056l-.456-.007zm0-.261h.456c.099.001.198-.012.292-.037a.642.642 0 0 0 .211-.105.46.46 0 0 0 .173-.366c.005-.068-.009-.135-.038-.198s-.074-.119-.132-.166a.83.83 0 0 0-.507-.131h-.456v1.002zM36.188 30.998h-.298a.14.14 0 0 1-.083-.023.163.163 0 0 1-.049-.056l-.256-.588h-1.288l-.266.588a.145.145 0 0 1-.047.055.146.146 0 0 1-.085.024h-.298l1.131-2.434h.392l1.146 2.434zm-1.866-.904h1.063l-.448-.991a1.62 1.62 0 0 1-.085-.229l-.043.127a.875.875 0 0 1-.042.103l-.445.989zM37.817 28.575a.155.155 0 0 1 .056.044l1.65 1.834v-1.89h.338v2.434h-.189a.199.199 0 0 1-.077-.014.21.21 0 0 1-.06-.045l-1.647-1.833a.589.589 0 0 1 0 .084V30.998h-.338v-2.434h.2c.023 0 .047.003.068.011zM42.639 30.03v.966h-.377v-.966l-1.042-1.466h.338a.133.133 0 0 1 .081.021.221.221 0 0 1 .051.055l.652.945a1.208 1.208 0 0 1 .115.216l.049-.105c.019-.038.04-.075.064-.111l.643-.952a.215.215 0 0 1 .049-.051.129.129 0 0 1 .081-.024h.341l-1.045 1.472zM27.309 24.48c.164.018.33.032.497.045 2.544-.972 4.695-2.563 6.186-4.575s2.255-4.354 2.197-6.734l-2.803-2.395c.57 2.534.303 5.154-.77 7.566s-2.911 4.522-5.308 6.092z"/><path d="m26.308 24.368.075.013c2.561-1.565 4.513-3.75 5.605-6.274s1.272-5.269.518-7.88l-3.993-3.411c1.615 2.804 2.265 5.942 1.874 9.049s-1.806 6.056-4.08 8.503zM39.849 16.029c-.679 2.615-2.326 4.974-4.697 6.726-.693.514-1.44.973-2.232 1.369 1.932-.485 3.707-1.342 5.189-2.506s2.632-2.603 3.36-4.207l-1.619-1.382z"/><path d="m39.214 15.644-2.305-1.97c-.044 2.246-.791 4.44-2.164 6.356s-3.321 3.482-5.642 4.536h.011c.517 0 1.034-.026 1.547-.079 2.169-.756 4.086-1.96 5.578-3.503s2.514-3.378 2.975-5.341zM26.642 5.378l-2.751-2.353c-2.459.812-4.573 2.239-6.067 4.095s-2.297 4.053-2.305 6.305c.009 2.489.989 4.903 2.786 6.862s4.306 3.35 7.132 3.953c2.522-2.626 3.999-5.871 4.216-9.263s-.838-6.755-3.012-9.6zM45.569 15.281c-.01-2.952-1.387-5.782-3.831-7.87s-5.755-3.264-9.211-3.273c-1.597-.002-3.18.25-4.669.742l16.84 14.388a9.646 9.646 0 0 0 .871-3.988z"/></symbol><symbol id="icon-client-2" viewBox="0 0 61 32"><path d="M29.529 4.118h-.074a7.677 7.677 0 0 0-.339-.012h-.245a12.8 12.8 0 0 0-.648.017.4.4 0 0 0-.049 0 15.222 15.222 0 0 0-5.663 1.445l-.233.112v11.922l.545-.185c.478-.164.988-.312 1.515-.449a18.48 18.48 0 0 1 4.359-.579v1.566c-.195.001-.384.007-.573.017h-.045a17.45 17.45 0 0 0-3.354.515 16.973 16.973 0 0 0-3.995 1.557V4.753a16.015 16.015 0 0 1 4.192-1.705 16.057 16.057 0 0 1 3.95-.509h.23c.275.007.543.019.795.038.664.046 1.322.151 1.968.314v1.542a12.28 12.28 0 0 0-1.907-.288l-.039-.003c-.133-.011-.266-.023-.39-.023zm2.713 1.576c.342.026.696.038 1.054.038a16.916 16.916 0 0 0 4.153-.533 17.117 17.117 0 0 0 3.994-1.558v15.018a16.036 16.036 0 0 1-4.193 1.705 16.104 16.104 0 0 1-3.95.508 12.103 12.103 0 0 1-2.997-.353V5.403c.232.053.47.103.712.144.398.067.817.116 1.226.146zm7.644.117-.545.183a23.46 23.46 0 0 1-1.515.453c-1.479.38-3 .575-4.526.58-.356 0-.682-.01-.998-.03l-.435-.029v12.265l.373.033c.346.03.703.045 1.063.045 1.203-.005 2.4-.16 3.565-.461a14.971 14.971 0 0 0 2.785-1.001l.233-.112V5.81zM21.788 25.269a.803.803 0 0 0-.606-.245.893.893 0 0 0-.35.066.777.777 0 0 0-.448.453.893.893 0 0 0-.063.338v2.043a.972.972 0 0 0 .08.419.719.719 0 0 0 .485.419c.099.028.202.042.305.043a.858.858 0 0 0 .846-.86v-.229h-.534v.182a.472.472 0 0 1-.031.182.322.322 0 0 1-.078.115.387.387 0 0 1-.224.078c-.048.006-.096-.002-.14-.021s-.082-.05-.111-.088a.49.49 0 0 1-.071-.274v-1.905a.644.644 0 0 1 .066-.305.27.27 0 0 1 .261-.123.286.286 0 0 1 .238.115c.06.078.091.175.088.274v.177h.529v-.208a.946.946 0 0 0-.244-.645zM24.96 25.245a.953.953 0 0 0-.608-.225.937.937 0 0 0-.319.057.85.85 0 0 0-.489.453.962.962 0 0 0-.078.396v1.959a.935.935 0 0 0 .078.401.796.796 0 0 0 .207.274.827.827 0 0 0 .282.172.913.913 0 0 0 .638 0c.106-.039.204-.097.289-.172s.154-.17.202-.274a.953.953 0 0 0 .078-.401v-1.959a.946.946 0 0 0-.078-.396.885.885 0 0 0-.202-.286zm-.249 2.642a.362.362 0 0 1-.106.284.387.387 0 0 1-.502 0 .352.352 0 0 1-.106-.284v-1.959c-.004-.052.003-.105.021-.154s.047-.094.085-.13a.387.387 0 0 1 .502 0c.038.036.067.081.085.13s.025.102.021.154v1.959zM29.127 28.762v-3.709h-.514l-.674 1.964h-.01l-.68-1.964h-.508v3.709h.53v-2.257h.01L27.8 28.1h.264l.523-1.595h.01v2.257h.53zM32.138 25.312a.735.735 0 0 0-.3-.203 1.165 1.165 0 0 0-.384-.057h-.787v3.709h.529v-1.449h.272a.962.962 0 0 0 .477-.101.78.78 0 0 0 .29-.283.898.898 0 0 0 .121-.323c.021-.139.031-.281.029-.422a2.101 2.101 0 0 0-.052-.53.778.778 0 0 0-.195-.341zm-.273 1.131a.463.463 0 0 1-.049.193.295.295 0 0 1-.136.13.534.534 0 0 1-.249.046h-.241v-1.261h.272a.512.512 0 0 1 .238.046.295.295 0 0 1 .124.137.529.529 0 0 1 .046.207v.246c0 .086.006.175 0 .255h-.006zM34.641 25.052h-.433l-.817 3.709h.529l.155-.797h.721l.155.797h.529l-.838-3.709zm-.487 2.407.26-1.345h.01l.259 1.345h-.529zM38.056 27.287h-.01l-.798-2.235h-.508v3.709h.529v-2.23h.011l.808 2.23h.497v-3.709h-.529v2.235zM41.286 25.052l-.425 1.475h-.011l-.425-1.475h-.56l.726 2.141v1.568h.529v-1.568l.726-2.141h-.559zM20.314 29.809h.255v.715h.173v-.715h.253v-.146h-.681v.146zM22.455 29.662l-.334.861h.184l.071-.196h.343l.074.196h.188l-.342-.861h-.184zm-.027.521.117-.319.117.319h-.234zM24.572 30.206h.199v.111a.337.337 0 0 1-.204.073.22.22 0 0 1-.182-.082.361.361 0 0 1-.064-.225c0-.192.083-.288.248-.288a.181.181 0 0 1 .195.137l.17-.033c-.037-.169-.158-.253-.365-.253a.434.434 0 0 0-.301.111.423.423 0 0 0-.123.331.469.469 0 0 0 .11.323.422.422 0 0 0 .327.126.513.513 0 0 0 .365-.137v-.34h-.373v.145zM26.734 29.662h-.174v.861h.603v-.146h-.429v-.715zM28.562 29.662h-.174v.861h.174v-.861zM30.349 30.237l-.353-.575h-.169v.861h.162v-.563l.346.563h.173v-.861h-.159v.575zM31.965 30.144h.429v-.146h-.429v-.189h.462v-.146h-.636v.861h.654v-.146h-.48v-.233zM35.882 30.002h-.339v-.34h-.173v.861h.173v-.377h.339v.377h.173v-.861h-.173v.34zM37.507 30.144h.43v-.146h-.43v-.189h.463v-.146h-.636v.861h.652v-.146h-.479v-.233zM39.711 30.144c.15-.023.226-.103.226-.24.004-.037-.001-.074-.016-.108s-.038-.063-.068-.084a.489.489 0 0 0-.252-.051h-.365v.861h.173v-.36h.034a.235.235 0 0 1 .108.019.184.184 0 0 1 .061.063l.188.274h.207l-.105-.169a.592.592 0 0 0-.191-.207zm-.174-.119h-.128v-.216h.136a.457.457 0 0 1 .176.02.118.118 0 0 1 .038.09.115.115 0 0 1-.046.086.497.497 0 0 1-.176.02zM41.373 30.144h.429v-.146h-.429v-.189h.463v-.146h-.638v.861h.654v-.146h-.479v-.233z"/></symbol><symbol id="icon-client-1" viewBox="0 0 61 32"><path d="m22.199 3.482 4.178 3.98-7.754-.004v19.309H38.89v-7.383l4.173 3.975V3.482H22.2zm16.507 15.434L26.862 7.632h11.844v11.284zm-3.677 5.026H21.83V10.956h.933v12.107h12.266v.879zm-10.568 6.401-.492-1.012h-.406l.713 1.339v.78h.368v-.78l.713-1.339h-.405l-.492 1.012zm1.814-1.011h.087l.801 2.119h-.384l-.171-.496h-.82l-.171.496h-.382l.797-2.119h.244zm-.388 1.333h.62l-.311-.899-.31.899zm2.561-.352-.046-.059c-.054-.072-.097-.141-.127-.208s-.045-.137-.045-.209c0-.111.023-.206.069-.285s.11-.141.193-.183a.618.618 0 0 1 .293-.066c.108 0 .2.022.278.066a.46.46 0 0 1 .108.738 1.118 1.118 0 0 1-.148.13l-.147.108.419.495a.859.859 0 0 0 .091-.396h.303c0 .102-.01.2-.031.293a.883.883 0 0 1-.155.35l.311.367h-.406l-.123-.144a.822.822 0 0 1-.218.118.963.963 0 0 1-.329.055c-.141 0-.262-.025-.365-.077s-.183-.122-.239-.213a.582.582 0 0 1-.03-.537.693.693 0 0 1 .147-.183c.057-.052.123-.104.196-.156zm.173.214-.044.032a.51.51 0 0 0-.115.121.348.348 0 0 0-.059.19c0 .062.013.118.039.169s.066.09.118.121a.388.388 0 0 0 .191.044.551.551 0 0 0 .342-.12l-.472-.554zm.084-.388.13-.087c.061-.041.105-.081.131-.12s.039-.089.039-.148c0-.05-.02-.097-.059-.139s-.094-.064-.164-.064a.21.21 0 0 0-.125.035c-.034.022-.06.052-.077.09a.294.294 0 0 0 .009.259.8.8 0 0 0 .116.175zm3.707.622h-.364a.659.659 0 0 1-.067.234.33.33 0 0 1-.147.144.55.55 0 0 1-.252.05c-.085 0-.158-.017-.22-.051s-.111-.082-.151-.144a.716.716 0 0 1-.087-.223 1.448 1.448 0 0 1-.027-.291v-.179c0-.113.01-.213.031-.3s.053-.162.095-.223c.041-.06.094-.106.156-.137s.135-.046.218-.046c.102 0 .185.017.248.052s.111.083.143.148a.679.679 0 0 1 .064.234h.364a.905.905 0 0 0-.12-.377c-.064-.109-.154-.195-.27-.258s-.259-.094-.428-.094c-.133 0-.253.024-.36.07s-.197.114-.272.202c-.076.087-.134.193-.174.316s-.06.261-.06.414v.176c0 .152.02.29.059.414s.097.228.172.316c.074.087.164.153.269.2s.223.07.354.07c.171 0 .316-.031.435-.094s.212-.147.278-.255a.83.83 0 0 0 .116-.371zm2.022-.312v-.116c0-.16-.022-.304-.064-.43s-.101-.235-.179-.325c-.078-.09-.171-.158-.278-.206s-.227-.071-.358-.071c-.13 0-.249.024-.356.071s-.199.115-.278.206a.956.956 0 0 0-.181.325 1.327 1.327 0 0 0-.064.43v.116c0 .16.022.304.064.431.044.127.105.235.183.325s.171.158.278.206a.9.9 0 0 0 .356.07c.131 0 .25-.024.358-.07a.759.759 0 0 0 .276-.206c.078-.089.137-.197.179-.325s.062-.27.062-.431zm-.365-.119v.12c0 .118-.011.223-.035.314a.683.683 0 0 1-.099.232c-.044.062-.097.109-.16.141s-.136.046-.217.046a.479.479 0 0 1-.215-.046.456.456 0 0 1-.163-.141c-.045-.063-.078-.14-.102-.232s-.035-.196-.035-.314v-.12c0-.118.011-.223.035-.313.024-.091.057-.167.101-.228s.099-.109.162-.139c.063-.032.135-.048.215-.048s.153.016.217.048c.064.031.118.078.162.139s.078.137.101.228c.024.09.035.195.035.313z"/></symbol><symbol id="icon-linkedin-1" viewBox="0 0 32 32"><path d="M31.992 32v-.001H32V20.263c0-5.741-1.236-10.164-7.948-10.164-3.227 0-5.392 1.771-6.276 3.449h-.093v-2.913h-6.364v21.364h6.627V21.42c0-2.785.528-5.479 3.977-5.479 3.399 0 3.449 3.179 3.449 5.657v10.401h6.62zM.528 10.636h6.635V32H.528V10.636zM3.843 0C1.722 0 0 1.721 0 3.843s1.721 3.879 3.843 3.879c2.121 0 3.843-1.757 3.843-3.879A3.846 3.846 0 0 0 3.843 0z"/></symbol><symbol id="icon-facebook-1" viewBox="0 0 32 32"><path d="M21.329 5.313h2.921V.225C23.746.156 22.013 0 19.994 0c-4.212 0-7.097 2.649-7.097 7.519V12H8.249v5.688h4.648V32h5.699V17.689h4.46l.708-5.688h-5.169V8.082c.001-1.644.444-2.769 2.735-2.769z"/></symbol><symbol id="icon-twitter-1" viewBox="0 0 32 32"><path d="M32 6.078c-1.19.522-2.458.868-3.78 1.036a6.523 6.523 0 0 0 2.886-3.626 13.11 13.11 0 0 1-4.16 1.588A6.574 6.574 0 0 0 22.154 3c-3.632 0-6.556 2.948-6.556 6.562 0 .52.044 1.02.152 1.496-5.454-.266-10.28-2.88-13.522-6.862a6.605 6.605 0 0 0-.898 3.316 6.57 6.57 0 0 0 2.914 5.452 6.479 6.479 0 0 1-2.964-.808v.072c0 3.188 2.274 5.836 5.256 6.446a6.548 6.548 0 0 1-1.72.216 5.8 5.8 0 0 1-1.242-.112c.85 2.598 3.262 4.508 6.13 4.57a13.182 13.182 0 0 1-8.134 2.798c-.538 0-1.054-.024-1.57-.09A18.469 18.469 0 0 0 10.064 29c12.072 0 18.672-10 18.672-18.668 0-.29-.01-.57-.024-.848A13.087 13.087 0 0 0 32 6.078z"/></symbol><symbol id="icon-instagram-1" viewBox="0 0 32 32"><path d="M32.218 9.305c-.076-1.727-.355-2.914-.755-3.943a7.937 7.937 0 0 0-1.879-2.882A8.005 8.005 0 0 0 26.708.607c-1.035-.4-2.216-.679-3.943-.755-1.74-.083-2.292-.102-6.704-.102s-4.965.019-6.698.095C7.636-.079 6.449.201 5.42.6a7.95 7.95 0 0 0-2.883 1.879A8.018 8.018 0 0 0 .664 5.355c-.4 1.035-.679 2.216-.755 3.943-.083 1.74-.102 2.292-.102 6.705s.019 4.965.095 6.698c.076 1.727.356 2.914.756 3.943a8.015 8.015 0 0 0 1.879 2.882 8.005 8.005 0 0 0 2.876 1.873c1.035.4 2.216.679 3.943.755 1.733.077 2.286.095 6.698.095s4.965-.019 6.698-.095c1.727-.076 2.914-.355 3.942-.755a8.314 8.314 0 0 0 4.756-4.755c.4-1.035.679-2.216.755-3.943.076-1.733.095-2.286.095-6.698s-.007-4.965-.083-6.698zm-2.927 13.269c-.07 1.587-.337 2.444-.559 3.016a5.39 5.39 0 0 1-3.086 3.086c-.571.222-1.435.489-3.016.559-1.714.076-2.228.095-6.565.095s-4.857-.019-6.565-.095c-1.587-.07-2.444-.336-3.016-.559a4.983 4.983 0 0 1-1.866-1.213 5.055 5.055 0 0 1-1.213-1.867c-.222-.571-.489-1.435-.558-3.016-.076-1.714-.095-2.228-.095-6.565s.019-4.857.095-6.565c.07-1.587.336-2.444.558-3.016a4.937 4.937 0 0 1 1.219-1.867A5.044 5.044 0 0 1 6.49 3.355c.571-.222 1.435-.489 3.016-.559 1.714-.076 2.229-.095 6.565-.095 4.343 0 4.857.019 6.565.095 1.587.07 2.444.337 3.016.559.704.26 1.346.673 1.867 1.212.54.527.952 1.162 1.213 1.867.222.571.489 1.435.559 3.016.076 1.714.095 2.228.095 6.565s-.019 4.844-.095 6.558z"/><path d="M16.06 7.654c-4.609 0-8.349 3.739-8.349 8.349s3.74 8.349 8.349 8.349 8.349-3.739 8.349-8.349-3.739-8.349-8.349-8.349zm0 13.765a5.417 5.417 0 1 1 .002-10.834 5.417 5.417 0 0 1-.002 10.834zM26.688 7.324a1.95 1.95 0 1 1-3.899-.001 1.95 1.95 0 0 1 3.899.001z"/></symbol><symbol id="icon-astronaut-1" viewBox="0 0 32 32"><path d="M31.974 4.524a.534.534 0 0 0-.43-.363l-1.91-.278-.855-1.731c-.179-.365-.777-.365-.956 0l-.855 1.731-1.91.278a.535.535 0 0 0-.296.91l1.383 1.348-.326 1.903c-.034.2.048.402.212.522a.53.53 0 0 0 .562.04l1.709-.899 1.709.899a.536.536 0 0 0 .775-.563l-.326-1.903 1.383-1.348a.536.536 0 0 0 .135-.547zm-2.463 1.327a.534.534 0 0 0-.153.472l.191 1.114-1-.526a.533.533 0 0 0-.498 0l-1.001.526.191-1.114a.534.534 0 0 0-.153-.472l-.81-.789 1.119-.163a.532.532 0 0 0 .402-.292l.5-1.013.5 1.013a.535.535 0 0 0 .402.292l1.119.163-.809.789zM26.134 20.522h-1.067v1.067h1.067v-1.067zM26.134 22.656h-1.067v1.067h1.067v-1.067zM27.2 21.589h-1.067v1.067H27.2v-1.067zM25.067 21.589H24v1.067h1.067v-1.067zM22.4 26.389h-1.067v1.067H22.4v-1.067zM22.4 28.522h-1.067v1.067H22.4v-1.067zM23.467 27.456H22.4v1.067h1.067v-1.067zM21.333 27.456h-1.067v1.067h1.067v-1.067zM16 24.256h-1.067v1.067H16v-1.067zM16 26.389h-1.067v1.067H16v-1.067zM17.067 25.322H16v1.067h1.067v-1.067zM14.933 25.322h-1.067v1.067h1.067v-1.067zM5.867 6.122H4.8v1.067h1.067V6.122zM5.867 8.255H4.8v1.067h1.067V8.255z"/><path d="M6.933 7.189H5.866v1.067h1.067V7.189zM4.8 7.189H3.733v1.067H4.8V7.189z"/><path d="M24.715 14.159a1.775 1.775 0 0 0-1.188-.705 1.778 1.778 0 0 0-1.34.352l-1.252.96-1.898 1.417-1.358-.541c2.421-1.086 4.114-3.508 4.114-6.32 0-3.823-3.123-6.933-6.961-6.933s-6.961 3.11-6.961 6.933a6.86 6.86 0 0 0 1.12 3.758l-2.764-.024h-.005c-.009 0-.015.004-.023.005a.515.515 0 0 0-.155.031l-.038.013c-.006.003-.013.003-.019.006l-3.233 1.596-.001.001-1.893.911a.397.397 0 0 0-.063.035 1.779 1.779 0 0 0-.598 2.295c.22.429.595.745 1.056.889a1.776 1.776 0 0 0 1.378-.128l1.388-.738 2.264-1.169 1.357-.008L2.2 22.211l-.002.001-1.339 1.333c-.316.315-.49.732-.49 1.178s.174.863.49 1.179c.325.323.752.485 1.179.485s.854-.162 1.18-.485l1.314-1.309 1.741-1.3.901.897-1.762 1.754-.002.001-1.339 1.333c-.316.315-.49.732-.49 1.178s.174.863.49 1.179c.325.323.753.485 1.18.485s.855-.162 1.18-.485l3.482-3.467.001-.002 1.01-1-.004-.004c.006-.006.015-.009.022-.015l5.166-5.658 3.471.494a.52.52 0 0 0 .262-.033c.018-.006.033-.015.05-.023.019-.01.039-.015.058-.027l3.213-2.133c.012-.008.018-.021.029-.029.013-.01.029-.014.041-.026l1.271-1.191c.662-.62.753-1.635.212-2.362zM2.13 17.77a.714.714 0 0 1-.558.052.717.717 0 0 1-.213-1.26l1.314-.632.449 1.313-.992.527zm3.498-1.828-1.548.8-.439-1.283 2.027-1.001-.04 1.484zm15.099-6.62a5.79 5.79 0 0 1-.599 2.559l-4.181-1.899a1.863 1.863 0 0 0-.788-1.388l1.464-4.86c2.378.756 4.105 2.974 4.105 5.588zm-11.789 0c0-3.235 2.644-5.867 5.894-5.867.253 0 .5.021.745.052l-1.432 4.754c-.019-.001-.037-.006-.057-.006-1.033 0-1.873.837-1.873 1.867s.84 1.867 1.873 1.867c.694 0 1.294-.383 1.618-.945l3.862 1.755a5.894 5.894 0 0 1-4.737 2.39c-3.25 0-5.894-2.632-5.894-5.867zm5.956.8c0 .441-.362.8-.806.8s-.806-.359-.806-.8c0-.441.362-.8.806-.8s.806.359.806.8zM2.465 25.146a.608.608 0 0 1-.854.001.592.592 0 0 1 0-.844l.962-.958.851.848-.959.955zm3.214 3.734a.608.608 0 0 1-.855.001.592.592 0 0 1 0-.844l.963-.959.852.848-.96.955zm3.481-3.469-.002.001-1.765 1.76-.852-.848 1.763-1.755.002-.001c.04-.04.065-.088.09-.135.007-.014.02-.026.026-.04.017-.041.019-.085.026-.129.003-.025.014-.047.014-.073 0-.036-.013-.07-.02-.106-.006-.032-.006-.065-.019-.095a.55.55 0 0 0-.091-.138c-.01-.012-.014-.027-.025-.038h-.001l-.001-.002-1.607-1.6c-.017-.017-.039-.024-.058-.038a.507.507 0 0 0-.087-.058.515.515 0 0 0-.093-.033.507.507 0 0 0-.103-.02.5.5 0 0 0-.095.005.53.53 0 0 0-.104.02.477.477 0 0 0-.094.045c-.02.011-.042.015-.061.029L4.23 23.486l-.901-.897 2.399-2.386 4.361 4.289-.928.919zm6.819-7.017c-.015-.002-.03.004-.045.003a.556.556 0 0 0-.3.075.492.492 0 0 0-.083.061c-.013.011-.028.017-.04.029l-4.698 5.146-4.328-4.257 2.833-2.818a.534.534 0 0 0-.379-.911v-.001l-2.219.013.028-1.607 3.104.027a6.947 6.947 0 0 0 4.981 2.101c.437 0 .864-.045 1.279-.123.04.032.079.065.13.085l2.41.96.152.758.178.885-3.003-.427zm4.041.178-.313-1.558 1.446-1.08.947 1.257-2.08 1.381zm3.754-2.831-.838.785-.931-1.236.831-.637a.735.735 0 0 1 .543-.143.718.718 0 0 1 .48.284.713.713 0 0 1-.085.947z"/><path d="m13.602 18.544-2.143-2.133a.534.534 0 0 0-.753 0l-2.142 2.133a.537.537 0 0 0 0 .756l2.142 2.133a.536.536 0 0 0 .753 0l2.143-2.133a.535.535 0 0 0 0-.756zm-2.519 1.759-1.387-1.381 1.387-1.381 1.387 1.381-1.387 1.381zM17.164 5.071l-.258 1.036c.071.018 1.738.452 1.738 2.149h1.067c0-2.017-1.666-2.965-2.547-3.185zM19.711 9.322h-1.067v1.067h1.067V9.322z"/></symbol><symbol id="icon-diagram-1" viewBox="0 0 32 32"><path d="M14.926 14.965h1.066v4.798h-1.066v-4.797zM19.19 17.097h1.066v2.665H19.19v-2.665zM10.661 18.696h1.066v1.066h-1.066v-1.066zM7.463 18.163h1.066v1.599H7.463v-1.599z"/><path d="M1.599 28.291h25.587a1.6 1.6 0 0 0 1.599-1.599V24.56a1.6 1.6 0 0 0-1.599-1.599h-.533V9.668L29.681 6.8a1.608 1.608 0 1 0-.746-.763L26.654 8.2V6.97a1.6 1.6 0 0 0-1.599-1.599H3.733A1.6 1.6 0 0 0 2.134 6.97v15.992h-.533a1.6 1.6 0 0 0-1.599 1.599v2.132a1.6 1.6 0 0 0 1.599 1.599zM30.384 4.837a.533.533 0 1 1 0 1.067.533.533 0 0 1 0-1.067zM3.198 6.969c0-.294.239-.533.533-.533h21.322c.294 0 .533.239.533.533v2.239l-1.066 1.013V8.035a.533.533 0 0 0-.533-.533H4.797a.533.533 0 0 0-.533.533v13.326c0 .294.239.533.533.533h19.19a.533.533 0 0 0 .533-.533v-9.674l1.066-1.01v12.284H3.198V6.969zm4.798 6.93a1.598 1.598 0 1 0 1.107 2.749l1.853.93a.532.532 0 0 0 .636-.123l3.939-4.431 3.872 2.901a.533.533 0 0 0 .686-.039l3.365-3.188v8.131H5.33V8.569h18.124v2.66l-3.771 3.572-3.904-2.927a.533.533 0 0 0-.718.072l-3.993 4.493-1.493-.746c.011-.064.018-.129.02-.193a1.6 1.6 0 0 0-1.599-1.599zm.533 1.599a.533.533 0 1 1-1.067 0 .533.533 0 0 1 1.067 0zm3.198 8.529h5.331v.533a.533.533 0 0 1-.533.533h-4.264a.533.533 0 0 1-.533-.533v-.533zm-10.661.533c0-.294.239-.533.533-.533h9.062v.533a1.6 1.6 0 0 0 1.599 1.599h4.264a1.6 1.6 0 0 0 1.599-1.599v-.533h9.062c.294 0 .533.239.533.533v2.132a.533.533 0 0 1-.533.533H1.598a.533.533 0 0 1-.533-.533V24.56z"/></symbol><symbol id="icon-clock-1" viewBox="0 0 32 32"><path d="M31.297 15.301C31.295 6.849 24.442-.002 15.989 0S.686 6.855.688 15.308a15.304 15.304 0 0 0 10.649 14.576.662.662 0 0 0 .529-.065.637.637 0 0 0 .283-.356l3.865-12.25a1.912 1.912 0 1 0-.84-3.635l-5.106-5.107a.637.637 0 0 0-.902.902l5.103 5.109a1.876 1.876 0 0 0 .536 2.309l-3.683 11.673C3.844 25.783.118 17.71 2.799 10.432S13.553-.572 20.831 2.109c7.278 2.681 11.004 10.754 8.323 18.032a14.042 14.042 0 0 1-7.462 7.973l-.398-1.874a.637.637 0 0 0-1.049-.344l-3.837 3.426a.637.637 0 0 0 .231 1.084l4.899 1.564a.638.638 0 0 0 .819-.74l-.391-1.839a15.255 15.255 0 0 0 9.329-14.089zm-15.305-.637a.638.638 0 1 1 0 1.277.638.638 0 0 1 0-1.277zm2.101 14.864 2.184-1.948.603 2.84-2.787-.892z"/><path d="M15.354 3.185V4.46a.638.638 0 1 0 1.276 0V3.185a.638.638 0 0 0-1.276 0zM3.876 14.664a.638.638 0 0 0 0 1.276h1.275a.638.638 0 1 0 0-1.276H3.876zM28.108 15.939a.638.638 0 1 0 0-1.276h-1.275a.638.638 0 0 0 0 1.276h1.275z"/></symbol><symbol id="icon-antenna-1" viewBox="0 0 32 32"><path d="m30.773 22.098-8.443-8.505.937-4.615c.242.094.499.144.758.146h.006a2.159 2.159 0 1 0-2.008-1.435l-4.96.605L8.972.161a.534.534 0 0 0-.377-.16.532.532 0 0 0-.373.155L6.709 1.66a.534.534 0 0 0 0 .754l.814.826a14.943 14.943 0 0 0 2.519 17.663.513.513 0 0 0 .146.098c-.034.18-.051.364-.052.547v6.187h-6.4a2.67 2.67 0 0 0-2.667 2.667v1.067c0 .295.239.533.533.533h24.533a.533.533 0 0 0 .533-.533v-1.067a2.67 2.67 0 0 0-2.667-2.667h-6.4v-2.742a15.09 15.09 0 0 0 3.049.32 14.854 14.854 0 0 0 7.04-1.783l.818.823a.534.534 0 0 0 .377.16.532.532 0 0 0 .373-.155l1.513-1.504a.534.534 0 0 0 0-.754zM23.28 6.233a1.067 1.067 0 1 1 .753 1.822h-.003a1.067 1.067 0 0 1-.747-1.823h-.002zm-1.256 3.505-.598 2.946-1.175-1.182 1.774-1.763zm-.605-.902-1.92 1.909-1.485-1.493 3.405-.415zM24.004 28.8a1.6 1.6 0 0 1 1.6 1.6v.533H2.137V30.4a1.6 1.6 0 0 1 1.6-1.6h20.267zm-7.467-2.133v1.067h-5.333v-1.067h5.333zM11.204 25.6v-4.053c0-1.294 1.196-2.347 2.667-2.347s2.667 1.053 2.667 2.347V25.6h-5.333zm6.4-1.696v-2.357c0-1.882-1.675-3.413-3.733-3.413a3.8 3.8 0 0 0-3.281 1.786A13.87 13.87 0 0 1 8.311 4.033l18.602 18.708a13.818 13.818 0 0 1-9.309 1.163zm11.289-.684L7.836 2.039l.755-.752 7.935 7.98c.004 0 .006.007.01.01l13.115 13.191-.757.752z"/><path d="M13.876 20.267h-.005a1.6 1.6 0 1 0-.004 3.2h.005a1.6 1.6 0 1 0 .004-3.2zm.373 1.978a.534.534 0 0 1-.752-.756.534.534 0 0 1 .373-.155.534.534 0 0 1 .374.911h.005z"/></symbol></defs></svg>